<?xml version="1.0" encoding="UTF-8"?>
<svg id="Layer_1" data-name="Layer 1" xmlns="http://www.w3.org/2000/svg" viewBox="0 0 700.05 701.32">
  <defs>
    <style>
      .cls-1 {
        opacity: .8;
      }

      .cls-2 {
        fill: none;
        opacity: .79;
        stroke: #ff0074;
        stroke-miterlimit: 10;
        stroke-width: .1px;
      }
    </style>
  </defs>
  <g class="cls-1">
    <line class="cls-2" x1="700.05" y1="10.16" x2=".05" y2="10.16"/>
    <line class="cls-2" x1="700.05" y1="20.33" x2=".05" y2="20.33"/>
    <line class="cls-2" x1="700.05" y1="30.49" x2=".05" y2="30.49"/>
    <line class="cls-2" x1="700.05" y1="40.65" x2=".05" y2="40.65"/>
    <line class="cls-2" x1="700.05" y1="50.82" x2=".05" y2="50.82"/>
    <line class="cls-2" x1="700.05" y1="60.98" x2=".05" y2="60.98"/>
    <line class="cls-2" x1="700.05" y1="71.14" x2=".05" y2="71.14"/>
    <line class="cls-2" x1="700.05" y1="81.31" x2=".05" y2="81.31"/>
    <line class="cls-2" x1="700.05" y1="91.47" x2=".05" y2="91.47"/>
    <line class="cls-2" x1="700.05" y1="101.63" x2=".05" y2="101.63"/>
    <line class="cls-2" x1="700.05" y1="111.8" x2=".05" y2="111.8"/>
    <line class="cls-2" x1="700.05" y1="121.96" x2=".05" y2="121.96"/>
    <line class="cls-2" x1="700.05" y1="132.12" x2=".05" y2="132.12"/>
    <line class="cls-2" x1="700.05" y1="142.29" x2=".05" y2="142.29"/>
    <line class="cls-2" x1="700.05" y1="152.45" x2=".05" y2="152.45"/>
    <line class="cls-2" x1="700.05" y1="162.61" x2=".05" y2="162.61"/>
    <line class="cls-2" x1="700.05" y1="172.78" x2=".05" y2="172.78"/>
    <line class="cls-2" x1="700.05" y1="182.94" x2=".05" y2="182.94"/>
    <line class="cls-2" x1="700.05" y1="193.1" x2=".05" y2="193.1"/>
    <line class="cls-2" x1="700.05" y1="203.27" x2=".05" y2="203.27"/>
    <line class="cls-2" x1="700.05" y1="213.43" x2=".05" y2="213.43"/>
    <line class="cls-2" x1="700.05" y1="223.59" x2=".05" y2="223.59"/>
    <line class="cls-2" x1="700.05" y1="233.76" x2=".05" y2="233.76"/>
    <line class="cls-2" x1="700.05" y1="243.92" x2=".05" y2="243.92"/>
    <line class="cls-2" x1="700.05" y1="254.08" x2=".05" y2="254.08"/>
    <line class="cls-2" x1="700.05" y1="264.25" x2=".05" y2="264.25"/>
    <line class="cls-2" x1="700.05" y1="274.41" x2=".05" y2="274.41"/>
    <line class="cls-2" x1="700.05" y1="284.57" x2=".05" y2="284.57"/>
    <line class="cls-2" x1="700.05" y1="294.74" x2=".05" y2="294.74"/>
    <line class="cls-2" x1="700.05" y1="304.9" x2=".05" y2="304.9"/>
    <line class="cls-2" x1="700.05" y1="315.06" x2=".05" y2="315.06"/>
    <line class="cls-2" x1="700.05" y1="325.23" x2=".05" y2="325.23"/>
    <line class="cls-2" x1="700.05" y1="335.39" x2=".05" y2="335.39"/>
    <line class="cls-2" x1="700.05" y1="345.55" x2=".05" y2="345.55"/>
    <line class="cls-2" x1="700.05" y1="355.72" x2=".05" y2="355.72"/>
    <line class="cls-2" x1="700.05" y1="365.88" x2=".05" y2="365.88"/>
    <line class="cls-2" x1="700.05" y1="376.04" x2=".05" y2="376.04"/>
    <line class="cls-2" x1="700.05" y1="386.21" x2=".05" y2="386.21"/>
    <line class="cls-2" x1="700.05" y1="396.37" x2=".05" y2="396.37"/>
    <line class="cls-2" x1="700.05" y1="406.53" x2=".05" y2="406.53"/>
    <line class="cls-2" x1="700.05" y1="416.7" x2=".05" y2="416.7"/>
    <line class="cls-2" x1="700.05" y1="426.86" x2=".05" y2="426.86"/>
    <line class="cls-2" x1="700.05" y1="437.02" x2=".05" y2="437.02"/>
    <line class="cls-2" x1="700.05" y1="447.19" x2=".05" y2="447.19"/>
    <line class="cls-2" x1="700.05" y1="457.35" x2=".05" y2="457.35"/>
    <line class="cls-2" x1="700.05" y1="467.51" x2=".05" y2="467.51"/>
    <line class="cls-2" x1="700.05" y1="477.68" x2=".05" y2="477.68"/>
    <line class="cls-2" x1="700.05" y1="487.84" x2=".05" y2="487.84"/>
    <line class="cls-2" x1="700.05" y1="498" x2=".05" y2="498"/>
    <line class="cls-2" x1="700.05" y1="508.17" x2=".05" y2="508.17"/>
    <line class="cls-2" x1="700.05" y1="518.33" x2=".05" y2="518.33"/>
    <line class="cls-2" x1="700.05" y1="528.5" x2=".05" y2="528.5"/>
    <line class="cls-2" x1="700.05" y1="538.66" x2=".05" y2="538.66"/>
    <line class="cls-2" x1="700.05" y1="548.82" x2=".05" y2="548.82"/>
    <line class="cls-2" x1="700.05" y1="558.99" x2=".05" y2="558.99"/>
    <line class="cls-2" x1="700.05" y1="569.15" x2=".05" y2="569.15"/>
    <line class="cls-2" x1="700.05" y1="579.31" x2=".05" y2="579.31"/>
    <line class="cls-2" x1="700.05" y1="589.48" x2=".05" y2="589.48"/>
    <line class="cls-2" x1="700.05" y1="599.64" x2=".05" y2="599.64"/>
    <line class="cls-2" x1="700.05" y1="609.8" x2=".05" y2="609.8"/>
    <line class="cls-2" x1="700.05" y1="619.97" x2=".05" y2="619.97"/>
    <line class="cls-2" x1="700.05" y1="630.13" x2=".05" y2="630.13"/>
    <line class="cls-2" x1="700.05" y1="640.29" x2=".05" y2="640.29"/>
    <line class="cls-2" x1="700.05" y1="650.46" x2=".05" y2="650.46"/>
    <line class="cls-2" x1="700.05" y1="660.62" x2=".05" y2="660.62"/>
    <line class="cls-2" x1="700.05" y1="670.78" x2=".05" y2="670.78"/>
    <line class="cls-2" x1="700.05" y1="680.95" x2=".05" y2="680.95"/>
    <line class="cls-2" x1="700.05" y1="691.11" x2=".05" y2="691.11"/>
    <line class="cls-2" x1="700.05" y1="701.27" x2=".05" y2="701.27"/>
    <line class="cls-2" x1=".05" y1="700" x2=".05"/>
    <line class="cls-2" x1="10.05" y1="700" x2="10.05"/>
    <line class="cls-2" x1="20.05" y1="700" x2="20.05"/>
    <line class="cls-2" x1="30.05" y1="700" x2="30.05"/>
    <line class="cls-2" x1="40.05" y1="700" x2="40.05"/>
    <line class="cls-2" x1="50.05" y1="700" x2="50.05"/>
    <line class="cls-2" x1="60.05" y1="700" x2="60.05"/>
    <line class="cls-2" x1="70.05" y1="700" x2="70.05"/>
    <line class="cls-2" x1="80.05" y1="700" x2="80.05"/>
    <line class="cls-2" x1="90.05" y1="700" x2="90.05"/>
    <line class="cls-2" x1="100.05" y1="700" x2="100.05"/>
    <line class="cls-2" x1="110.05" y1="700" x2="110.05"/>
    <line class="cls-2" x1="120.05" y1="700" x2="120.05"/>
    <line class="cls-2" x1="130.05" y1="700" x2="130.05"/>
    <line class="cls-2" x1="140.05" y1="700" x2="140.05"/>
    <line class="cls-2" x1="150.05" y1="700" x2="150.05"/>
    <line class="cls-2" x1="160.05" y1="700" x2="160.05"/>
    <line class="cls-2" x1="170.05" y1="700" x2="170.05"/>
    <line class="cls-2" x1="180.05" y1="700" x2="180.05"/>
    <line class="cls-2" x1="190.05" y1="700" x2="190.05"/>
    <line class="cls-2" x1="200.05" y1="700" x2="200.05"/>
    <line class="cls-2" x1="210.05" y1="700" x2="210.05"/>
    <line class="cls-2" x1="220.05" y1="700" x2="220.05"/>
    <line class="cls-2" x1="230.05" y1="700" x2="230.05"/>
    <line class="cls-2" x1="240.05" y1="700" x2="240.05"/>
    <line class="cls-2" x1="250.05" y1="700" x2="250.05"/>
    <line class="cls-2" x1="260.05" y1="700" x2="260.05"/>
    <line class="cls-2" x1="270.05" y1="700" x2="270.05"/>
    <line class="cls-2" x1="280.05" y1="700" x2="280.05"/>
    <line class="cls-2" x1="290.05" y1="700" x2="290.05"/>
    <line class="cls-2" x1="300.05" y1="700" x2="300.05"/>
    <line class="cls-2" x1="310.05" y1="700" x2="310.05"/>
    <line class="cls-2" x1="320.05" y1="700" x2="320.05"/>
    <line class="cls-2" x1="330.05" y1="700" x2="330.05"/>
    <line class="cls-2" x1="340.05" y1="700" x2="340.05"/>
    <line class="cls-2" x1="350.05" y1="700" x2="350.05"/>
    <line class="cls-2" x1="360.05" y1="700" x2="360.05"/>
    <line class="cls-2" x1="370.05" y1="700" x2="370.05"/>
    <line class="cls-2" x1="380.05" y1="700" x2="380.05"/>
    <line class="cls-2" x1="390.05" y1="700" x2="390.05"/>
    <line class="cls-2" x1="400.05" y1="700" x2="400.05"/>
    <line class="cls-2" x1="410.05" y1="700" x2="410.05"/>
    <line class="cls-2" x1="420.05" y1="700" x2="420.05"/>
    <line class="cls-2" x1="430.05" y1="700" x2="430.05"/>
    <line class="cls-2" x1="440.05" y1="700" x2="440.05"/>
    <line class="cls-2" x1="450.05" y1="700" x2="450.05"/>
    <line class="cls-2" x1="460.05" y1="700" x2="460.05"/>
    <line class="cls-2" x1="470.05" y1="700" x2="470.05"/>
    <line class="cls-2" x1="480.05" y1="700" x2="480.05"/>
    <line class="cls-2" x1="490.05" y1="700" x2="490.05"/>
    <line class="cls-2" x1="500.05" y1="700" x2="500.05"/>
    <line class="cls-2" x1="510.05" y1="700" x2="510.05"/>
    <line class="cls-2" x1="520.05" y1="700" x2="520.05"/>
    <line class="cls-2" x1="530.05" y1="700" x2="530.05"/>
    <line class="cls-2" x1="540.05" y1="700" x2="540.05"/>
    <line class="cls-2" x1="550.05" y1="700" x2="550.05"/>
    <line class="cls-2" x1="560.05" y1="700" x2="560.05"/>
    <line class="cls-2" x1="570.05" y1="700" x2="570.05"/>
    <line class="cls-2" x1="580.05" y1="700" x2="580.05"/>
    <line class="cls-2" x1="590.05" y1="700" x2="590.05"/>
    <line class="cls-2" x1="600.05" y1="700" x2="600.05"/>
    <line class="cls-2" x1="610.05" y1="700" x2="610.05"/>
    <line class="cls-2" x1="620.05" y1="700" x2="620.05"/>
    <line class="cls-2" x1="630.05" y1="700" x2="630.05"/>
    <line class="cls-2" x1="640.05" y1="700" x2="640.05"/>
    <line class="cls-2" x1="650.05" y1="700" x2="650.05"/>
    <line class="cls-2" x1="660.05" y1="700" x2="660.05"/>
    <line class="cls-2" x1="670.05" y1="700" x2="670.05"/>
    <line class="cls-2" x1="680.05" y1="700" x2="680.05"/>
    <line class="cls-2" x1="690.05" y1="700" x2="690.05"/>
  </g>
</svg>