<?xml version="1.0" encoding="UTF-8"?><svg xmlns="http://www.w3.org/2000/svg" viewBox="0 0 315.62 211.32"><defs><style>.d{fill:#fcd65e;}.e{fill:#cce2de;}.f{fill:#d8eae6;}.g{fill:#474546;}</style></defs><g id="a"/><g id="b"><g id="c"><g><g><path class="d" d="M196.17,124.86c-12.49-4.05-24.84-8.49-37.07-13.23-1.25-.48-2.49-.99-3.74-1.48,.27-1.24,.51-2.48,.73-3.73,1.07-5.98,2.09-12.04,2.09-18.12,0-5.97-1.04-11.97-3.25-17.53,9.09-3.79,18.18-7.58,27.27-11.38,1.47-.61,2.94-1.23,4.41-1.84,.83-.35,1.52-.7,2.04-1.4-.72-1.5-1.44-3-2.15-4.51-.27-.5-.55-1-.83-1.5-.36,0-.72,.06-1.07,.21-11.08,4.62-22.16,9.25-33.25,13.87-1.69-2.37-3.71-4.51-6.04-6.44-4.35-3.59-8.99-6.95-13.66-10.1-3.34-2.25-6.81-4.3-10.44-6.04,4.27-11.42,8.64-22.8,13.22-34.1,.61-1.5,1.22-2.99,1.83-4.49,.05-.13,.09-.26,.12-.4-2.29-.81-4.57-1.67-6.81-2.63-.22,.32-.42,.66-.58,1.04-4.96,12.07-9.68,24.23-14.26,36.44-.16,.43-.32,.86-.48,1.29-10.7-3.57-22.15-3.26-32.94-.1-2.01-5.04-3.98-10.1-6.04-15.13-1.31-3.18-2.65-6.34-4.06-9.47-.62-1.38-1.25-2.77-1.85-4.16l-.08-.18-.07-.16c-.15-.36-.3-.72-.44-1.08-.29-.72-.57-1.45-.83-2.19-.52-1.45-.97-2.92-1.34-4.41-.19-.78-.69-1.45-1.34-1.94-.48,.15-.96,.31-1.44,.47-.4,.17-.81,.34-1.23,.48-1.08,.37-2.16,.74-3.24,1.09-.16,.59-.18,1.23-.02,1.88,1.56,6.23,4.56,11.98,7.08,17.86,.06,.15,.13,.3,.19,.45,.16,.38,.33,.77,.49,1.16,.33,.78,.65,1.56,.97,2.34,.62,1.51,1.23,3.02,1.84,4.54,1.21,3.03,2.4,6.07,3.61,9.11,.23,.59,.47,1.17,.71,1.76-3.68,1.44-7.29,3.08-10.83,4.81-4.44,2.16-8.62,4.8-12.3,8.1-2.08,1.87-3.92,3.94-5.54,6.15-9.39-4.59-18.78-9.2-28.18-13.77-1.49-.72-2.97-1.45-4.46-2.17-.7-.34-1.49-.48-2.25-.43-.87,1.9-1.82,3.75-2.91,5.53,.3,.56,.74,1.05,1.36,1.35,10.86,5.27,21.7,10.59,32.54,15.9-1.71,3.4-3.02,7.01-3.95,10.72-1.25,5-1.92,10.17-2.33,15.3-.41,5.16-.44,10.37,.21,15.5,.1,.79,.21,1.57,.34,2.35-9.85,3.69-19.73,7.31-29.64,10.82-1.5,.53-3.01,1.06-4.51,1.59-.69,.24-1.32,.66-1.8,1.19,.24,1.03,.47,2.07,.68,3.11,.25,.91,.48,1.83,.69,2.76,.75,.34,1.59,.44,2.43,.15,11.32-3.98,22.6-8.09,33.84-12.3,.66,2.16,1.47,4.28,2.47,6.36,2.31,4.77,5.68,9.02,9.81,12.37,.59,.48,1.2,.95,1.81,1.4,4.13,4.12,8.86,7.68,13.88,10.44,2.28,1.26,4.63,2.31,7.03,3.18-1.9,4.8-3.83,9.58-5.81,14.35-.62,1.49-1.24,2.98-1.87,4.47-.3,.72-.6,1.43-.91,2.15-.07,.17-.14,.33-.21,.5v.02l-.04,.08c-.16,.39-.33,.77-.49,1.16-1.3,3.03-2.61,6.05-3.94,9.06-.66,1.48-1.32,2.96-1.98,4.43-.2,.45-.34,.93-.4,1.41,2.34,.7,4.66,1.42,6.99,2.15,5.43-12.08,10.56-24.29,15.46-36.58,.16-.39,.31-.78,.46-1.17,.21,.04,.42,.09,.63,.13,6.67,1.3,13.41,2.39,20.21,1.49,6.16-.82,12.02-2.92,17.7-5.35,.17-.07,.34-.15,.51-.23,2.78,5.88,5.58,11.74,8.27,17.66,1.35,2.97,2.56,6.03,4,8.96,1.18,2.39,2.64,4.61,4,6.89-.27,1.19,.08,2.43,.96,3.49,.19,.22,.39,.43,.6,.63,2.4-1.21,4.8-2.4,7.22-3.56-1.14-2.59-2.68-4.97-4.14-7.39-1.59-2.63-2.83-5.36-4.07-8.16-2.66-6.03-5.47-11.99-8.29-17.94-.59-1.24-1.18-2.48-1.76-3.73,2.7-1.35,5.36-2.78,7.92-4.34,4.09-2.5,7.92-5.56,11.03-9.21,3.21-3.76,5.64-7.91,7.54-12.45,.43-1.02,.81-2.05,1.16-3.09,11.9,4.68,23.9,9.09,36.04,13.13,1.45,.48,2.9,.96,4.35,1.43,.82-2.35,1.64-4.7,2.46-7.05-.02,0-.05-.02-.07-.03Zm-133.84-8.36c-.12-.09-.24-.17-.37-.26-.07-.19-.14-.37-.21-.56-.22-.62-.41-1.24-.58-1.88-.05-.19-.08-.38-.13-.57,.77,1.3,1.62,2.56,2.55,3.76,.08,.15,.14,.31,.22,.47-.5-.31-1-.62-1.49-.96Zm9.78,24.06l-.1-.04s-.03-.01-.04-.02c-.26-.11-.53-.22-.79-.34-.62-.27-1.24-.54-1.86-.82-.22-.1-.44-.21-.66-.31-.01-.1-.03-.2-.06-.29,1.66,.93,3.4,1.69,5.2,2.3,.4,.22,.8,.44,1.2,.65-.97-.36-1.93-.73-2.88-1.13Zm2.83-85.53c-1.1,.35-2.16,.79-3.21,1.27,.45-.48,.91-.96,1.38-1.42,.07-.02,.13-.04,.2-.06,.86-.25,1.72-.47,2.59-.66-.32,.29-.64,.58-.96,.88Zm35.97-9.48c.26,.08,.52,.17,.78,.25-.02,.04-.03,.09-.05,.13-1.14-.41-2.29-.78-3.45-1.12,.92,.22,1.83,.46,2.73,.73Zm1.77,92.33c-.06,.03-.29,.13-.45,.2-.15,.06-.38,.15-.44,.17-.28,.11-.56,.21-.84,.3-1.66,.58-3.37,1.03-5.1,1.36,2.48-.9,4.89-1.97,7.23-3.2,.12,.27,.23,.53,.35,.8-.25,.12-.5,.24-.75,.36Zm27.76-24.58c.08-.35,.15-.7,.22-1.06l.11,.04c-.11,.34-.22,.68-.33,1.01Zm3.7-46.06c-.14-.24-.29-.48-.44-.72,.03,.03,.07,.07,.1,.1,.13,.14,.28,.36,.44,.58l-.1,.04Zm3.65,6.52c.08-.03,.16-.06,.23-.1,.15,.4,.3,.81,.43,1.22-.22-.38-.44-.75-.67-1.12Z"/><path class="d" d="M47.27,118.77c-.03-.07-.07-.16-.11-.25-.04-.09-.11-.26-.16-.4,.1,.21,.2,.41,.31,.61-.01,.01-.03,.02-.04,.03Z"/><path class="d" d="M72.04,140.54c.1,.04,.31,.13,.32,.13-.11-.03-.21-.08-.32-.13Z"/><path class="d" d="M126.21,132.7l-.03,.02c.06-.05,.12-.1,.18-.14-.05,.04-.1,.08-.14,.12Z"/><path class="d" d="M139.47,115.91c-.13,.31-.21,.39,0,0h0Z"/><path class="d" d="M142.44,104.94h-.03s.03-.06,.04-.09c0,.03,0,.06,0,.09Z"/></g><g><path class="g" d="M93.4,56.54l-.29-.06c.44,.44,.88,.89,1.31,1.33-.03-.1-.06-.21-.07-.32l.07,.51c-.02-.17-.02-.34,0-.51l-.07,.51s0-.05,.01-.07c.08-.25,.09-.51,.03-.76-.01-.25-.09-.49-.22-.71-.12-.22-.28-.4-.48-.53-.18-.17-.4-.28-.64-.34-.17-.02-.33-.05-.5-.07-.34,0-.66,.09-.95,.26-.13,.1-.25,.2-.38,.3-.23,.24-.39,.52-.48,.84-.05,.24-.08,.48-.1,.71,0,.08,0,.16,0,.23,.02,.23,.04,.48,.1,.71,.06,.22,.17,.45,.26,.65,.12,.22,.28,.4,.48,.53,.18,.17,.4,.28,.64,.34,.17,.02,.33,.05,.5,.07,.34,0,.66-.09,.95-.26,.18-.11,.35-.24,.5-.39,0,0,.02-.02,.02-.03,.05-.07,.1-.13,.15-.2,.05-.07,.1-.13,.15-.2,.01-.02,.02-.04,.03-.06l.19-.45v-.02s.02-.02,.02-.03c0-.01,0-.02,0-.03l.07-.51v-.02s0-.05,0-.07c-.02-.19-.04-.39-.08-.58-.09-.32-.25-.6-.48-.84-.23-.24-.51-.4-.83-.49-.33-.09-.67-.09-1,0-.32,.09-.6,.25-.83,.49-.04,.03-.08,.06-.11,.1-.01,.02-.03,.03-.04,.05-.11,.14-.23,.28-.33,.43-.03,.04-.05,.08-.07,.12-.09,.19-.17,.38-.24,.58l3.7,.51,.02-.22c0-.26-.04-.51-.16-.73-.08-.24-.21-.44-.39-.61-.17-.19-.37-.32-.61-.39-.22-.12-.47-.17-.73-.16l-.5,.07c-.32,.09-.6,.25-.83,.49l-.29,.39c-.17,.3-.26,.62-.26,.96l-.02,.22c0,.26,.04,.51,.16,.73,.08,.24,.21,.44,.39,.61l.38,.3c.22,.14,.45,.21,.7,.23,.17,.05,.33,.05,.5,0,.25-.01,.48-.09,.7-.23l.38-.3c.23-.24,.39-.52,.48-.84,0-.02,.02-.05,.03-.07l-.19,.45c.03-.07,.07-.14,.12-.2l-.29,.39c.05-.06,.1-.12,.17-.17-1.05-.28-2.1-.56-3.15-.84,0,.02,0,.04,.01,.05l-.07-.51s0,.07,0,.11l.07-.51s-.01,.06-.02,.09c.06-.15,.13-.3,.19-.45-.01,.03-.02,.05-.04,.07l.29-.39s-.05,.06-.08,.08c.13-.1,.25-.2,.38-.3-.02,.02-.05,.03-.07,.05,.86,.23,1.72,.46,2.58,.68v-.03l.18,.45c-.04-.1-.07-.21-.09-.33,.02,.17,.04,.34,.07,.51-.02-.13-.02-.25,0-.38l-.07,.51s.01-.07,.02-.1c-1.21-.34-2.42-.67-3.63-1.01-.04,.24-.08,.48-.09,.73,0,.08,0,.16,0,.24,.02,.24,.05,.48,.09,.72,.01,.08,.03,.15,.06,.23,.09,.32,.25,.6,.48,.84,.23,.24,.51,.4,.83,.49l.29,.06c.25,.08,.5,.09,.75,.03,.25-.01,.48-.09,.7-.23,.22-.12,.4-.28,.53-.49,.17-.18,.28-.4,.34-.65l.07-.51c0-.34-.09-.66-.26-.96l-.29-.39c-.23-.24-.51-.4-.83-.49h0Z"/><g><path class="g" d="M105.88,56.92c2.42,0,2.43-3.81,0-3.81s-2.43,3.81,0,3.81h0Z"/><path class="g" d="M104,54.67v.71c0,.26,.04,.51,.16,.73,.08,.24,.21,.44,.39,.61,.17,.19,.37,.32,.61,.39,.22,.12,.47,.17,.73,.16,.17-.02,.33-.05,.5-.07,.32-.09,.6-.25,.83-.49l.29-.39c.17-.3,.26-.62,.26-.96v-.71c0-.26-.04-.51-.16-.73-.08-.24-.21-.44-.39-.61-.17-.19-.37-.32-.61-.39-.22-.12-.47-.17-.73-.16l-.5,.07c-.32,.09-.6,.25-.83,.49l-.29,.39c-.17,.3-.26,.62-.26,.96h0Z"/></g><path class="g" d="M109.59,62.33c-.85,3.3-3.88,6.07-7.1,6.95-3.06,.84-6.32,.23-8.86-1.68-.61-.46-1.58-.1-1.93,.51-.42,.73-.11,1.49,.51,1.95,3.18,2.4,7.5,3.03,11.28,1.9,4.03-1.2,7.75-4.71,8.82-8.87,.46-1.78-2.26-2.54-2.72-.76h0Z"/></g><g><path class="e" d="M222.92,174.84c.04,.11,.08,.22,.11,.33v.02c-.1-.37-.13-.42-.11-.35Z"/><path class="e" d="M168.41,72.69c.08-.01,.17-.02,.25-.03,.41-.06-.11,.01-.25,.03Z"/><path class="f" d="M314.21,155.93c-.91-3.13-2.18-6.13-3.4-9.14-1.29-3.18-2.43-6.4-4.12-9.39-1.58-2.79-3.37-5.58-5.46-8.01-2.44-4.87-5.93-9.26-10.12-12.69-5.17-4.23-11.17-7.53-17.21-10.32-3.98-1.84-8.13-3.38-12.41-4.3-2.48-.91-4.93-1.61-7.59-1.92-1.25-.15-2.51-.25-3.76-.34-3.87-.25-7.74-.2-11.58,.4-3.12,.49-6.57,1.79-8.31,4.53-.14,.05-.28,.1-.41,.16-1.73-6.61-5.75-12.81-10.52-17.51-5.51-5.43-12.34-9.26-19.56-11.81-7-2.47-14.55-3.65-21.96-3.63-1.75,0-3.49,.08-5.23,.24-.79,.07-1.57,.16-2.36,.26-.51,.07-1.02,.14-1.53,.21l-.26,.04c-.96,.13-1.92,.26-2.88,.39-5.09,.7-10.18,1.45-15.17,2.7-4.21,1.06-8.36,2.66-11.89,5.26-3.77,2.77-6.89,6.14-9.7,9.88-5.4,7.2-9.57,15.92-11.33,24.81-1.02,5.14-.97,10.33-.21,15.45-.92-.4-1.86-.77-2.82-1.09-2.05-.69-4.14-1.15-6.24-1.44-3.04-.67-6.16-1.05-9.25-.93-1.3,.05-2.59,.22-3.88,.4l-.18,.03c-.13,.02-.26,.03-.39,.05-.52,.07-1.05,.13-1.57,.19-2.24,.27-4.47,.54-6.7,.87-4.04,.61-7.98,1.58-11.66,3.44-3.25,1.65-6.18,4.02-8.77,6.57-5.25,5.16-9.39,11.42-13.35,17.61-2.13,3.34-3.85,6.84-4.64,10.77-.83,4.11-.96,8.31-.43,12.47,.5,3.83,1.5,7.78,4.53,10.41,1.12,.97,2.36,1.69,3.68,2.22,1.56,1.6,3.58,2.8,5.52,3.83,1.85,.99,3.67,1.87,5.63,2.42,.27,.15,.55,.28,.87,.36,5.48,1.43,11.09,2.17,16.74,2.54,2.66,.86,5.38,1.54,8.16,2,2.81,.46,5.61,.64,8.44,.89,2.82,.25,5.63,.62,8.44,.92,11.4,1.19,22.83,2.22,34.26,3.07,21.9,1.63,43.95,2.93,65.92,2.43,11.1-.25,22.17-1.07,33.16-2.7,2.41-.36,4.86-.73,7.31-1.17,.88,.03,1.77,.04,2.65,.06,.85,.29,1.77,.32,2.66,.03,.61,0,1.23,0,1.84,0,.61,.14,1.24,.2,1.86,.17,.52-.03,1.03-.11,1.54-.22,1.75-.04,3.49-.1,5.24-.2,25-1.31,56.94-21.78,48.4-51.23Zm-253.34,29.63h0s.04,.07,.07,.12h0s-.06-.09-.07-.12Zm.46,.74s-.06-.09-.09-.15c.06,.07,.13,.15,.15,.21-.03-.03-.04-.05-.06-.07Zm-.15-1.16s-.04,0-.06,0c.25-.22,.47-.45,.66-.72,.12,.23,.23,.46,.37,.69-.32,.02-.64,.03-.97,.03Zm22.31-17.34c.03-.12,.05-.24,.08-.36,.03-.1,.06-.2,.09-.3,.06,.27,.14,.54,.22,.81-.13-.05-.26-.1-.39-.15Zm9.08-23.34c-.49,.18-.97,.4-1.44,.61,1-1.05,2.06-2.05,3.16-3h0c-.01,.06-.03,.12-.04,.19-.08,.58-.03,1.14,.11,1.67-.6,.13-1.2,.31-1.79,.53Zm2.91,16.81s.04,.01,.06,.02l.04,.04,.04,.07s-.09-.08-.14-.13Zm.32,.17h0Zm3.63-.55c.07,.17,.15,.33,.24,.47v.02c-.2-.29-.26-.46-.24-.49Zm9.45,18.01c-.29,.45-.6,.89-.91,1.33-.13,.18-.26,.35-.38,.52l-.06,.08-.06,.07c-.17,.21-.35,.42-.52,.63-.4,.03-.81,.07-1.21,.11-.16-.22-.29-.39-.22-.26-.03-.05-.07-.11-.1-.16,.48-.6,.91-1.24,1.3-1.9,.77-.22,1.55-.44,2.32-.67-.05,.08-.1,.17-.16,.26Zm.43-12.98s0-.03,0-.05c.16,0,.13,.04,0,.05Zm.83-.95c.29-.21,.71-.44,0,0h0Zm1.81,.73c-.2-.52-.45-1.02-.76-1.49,.15-.1,.29-.2,.44-.29,.11,.34,.22,.67,.32,1.02,.07,.24,.11,.49,.17,.73-.06,0-.11,.02-.17,.03Zm13.38-45.46v-.03c.04-.13,.07-.27,.1-.42,.04-.06,.04,.03-.1,.45Zm.73-3.84c.11-.46,.22-.92,.35-1.38,.02,.26,.03,.51,.05,.77-.14,.2-.26,.4-.39,.6Zm28.4,3.08c-.13,.19-.25,.39-.38,.58-.33,.12-.66,.24-.99,.36,.06-.37,.11-.74,.17-1.11,.47-.29,.93-.57,1.4-.86,.37-.23,.75-.47,1.12-.7-.46,.55-.9,1.12-1.32,1.73Zm6.32-17.35c-.41,.21-.81,.44-1.21,.66-.54,.04-1.09,.08-1.63,.12,.91-.28,1.81-.57,2.7-.87,.13-.04,.26-.09,.39-.13,.08,0,.17-.01,.25-.02-.16,.08-.33,.17-.49,.25Zm8.76,58.07l-.02,.03c-.09-.04-.18-.08-.27-.12-1.01-.47-1.99-.99-2.96-1.52-.1-.14-.21-.29-.31-.43-.35-.51-.7-.92-1.09-1.3,.4,.14,.8,.26,1.21,.36,1.23,.94,2.53,1.76,3.91,2.42-.16,.19-.32,.37-.47,.56Zm3.71-21.85c-.12,.1-.25,.25-.37,.4,.03-.1,.16-.29,.38-.43v.02Zm.67-5.82h0c0,.12,.07,.29,.13,.46-.08-.11-.16-.29-.14-.46Zm.42,3.03c0-.64,.03-.37,0,0h0Zm0-1.75v.03c-.01,.16,0,.35,.02,.55-.05-.07-.09-.29-.02-.58Zm19.77-15.7c.13,.16,.25,.34,.38,.51,.3,.41,.61,.83,.91,1.24,.05,.06,.09,.13,.13,.19,.17,.28,.33,.57,.49,.86-.58-.08-1.16-.16-1.75-.24-.1-.91-.23-1.81-.37-2.72,.1,.07,.16,.12,.21,.14Zm-6.79,55.47c0-.05-.02-.1-.02-.15v-.08c.05,.39,.05,.36,.02,.23Zm1.32-91.81c-.17-.07-.33-.14-.5-.21l-.09-.04s-.08-.04-.12-.05c.52,.09,1.05,.18,1.57,.29,.08,.02,.16,.04,.25,.06-.37-.02-.74-.03-1.11-.04Zm2.62,120.8c2.06-.04,4.13-.1,6.19-.15,.13,.08,.25,.15,.38,.23-2.19-.01-4.38-.04-6.57-.08Zm22.98-31.54c-.1-.19-.19-.37-.28-.56,.22-.36,.43-.73,.62-1.1-.14,.55-.25,1.1-.34,1.66Zm14.63,10.35c-.15-.09-.3-.18-.45-.27-.34-.22-.68-.45-1.01-.68l-.08-.06c-.11-.09-.45-.36-.47-.37-.66-.56-1.28-1.17-1.87-1.81-.16-.17-.32-.35-.47-.53-.03-.04-.13-.15-.21-.25-.08-.11-.17-.23-.2-.28-.17-.24-.33-.49-.48-.74-.24-.39-.44-.79-.65-1.2l.02,.06s-.02-.05-.03-.08h0c-.05-.12-.1-.27-.11-.33,0-.02-.02-.05-.02-.07-.02-.05-.03-.1-.04-.15,.03,.01,.06,.02,.1,.04,1.44,2.22,3.42,3.93,5.82,4.94,.16,.66,.35,1.3,.59,1.94-.15-.05-.29-.1-.43-.15Zm39.77-36.81c0-.1-.02-.19-.03-.29,.08,.06,.17,.12,.25,.18-.07,.04-.15,.07-.22,.11Z"/></g><g><g><path class="g" d="M226.19,126.26c2.84-1.46,.83-5.47-2.02-4.01-2.84,1.46-.83,5.47,2.02,4.01h0Z"/><path class="g" d="M222.78,125.01c.13,.25,.25,.5,.38,.75,.13,.28,.32,.51,.58,.67,.21,.2,.47,.34,.78,.41,.3,.09,.6,.11,.92,.05,.33,0,.64-.1,.94-.26l.55-.37c.33-.29,.56-.63,.72-1.02l.14-.58c.04-.42-.03-.8-.21-1.17-.13-.25-.25-.5-.38-.75-.13-.28-.32-.51-.58-.67-.21-.2-.47-.34-.78-.41-.3-.09-.6-.11-.92-.05-.33,0-.64,.1-.94,.26-.18,.12-.37,.25-.55,.37-.33,.29-.56,.63-.72,1.02-.05,.19-.09,.39-.14,.58-.04,.42,.03,.8,.21,1.17h0Z"/></g><g><path class="g" d="M209.07,128.49c2.84-1.46,.83-5.47-2.02-4.01-2.84,1.46-.83,5.47,2.02,4.01h0Z"/><path class="g" d="M205.67,127.24c.13,.25,.25,.5,.38,.75,.13,.28,.32,.51,.58,.67,.21,.2,.47,.34,.78,.41,.3,.09,.6,.11,.92,.05,.33,0,.64-.1,.94-.26l.55-.37c.33-.29,.56-.63,.72-1.02l.14-.58c.04-.42-.03-.8-.21-1.17-.13-.25-.25-.5-.38-.75-.13-.28-.32-.51-.58-.67-.21-.2-.47-.34-.78-.41-.3-.09-.6-.11-.92-.05-.33,0-.64,.1-.94,.26l-.55,.37c-.33,.29-.56,.63-.72,1.02l-.14,.58c-.04,.42,.03,.8,.21,1.17h0Z"/></g><path class="g" d="M201.65,138.13c1.71,3.17,5.01,5.36,8.64,5.36,3.87,0,7.23-2.2,8.98-5.66,.46-.9-.19-2.09-1.05-2.43-1.01-.4-1.95,.16-2.41,1.07-.11,.22-.04,.08-.12,.21-.09,.15-.19,.29-.29,.43-.14,.2-.41,.54-.49,.63-.33,.36-.92,.86-1.42,1.16,.15-.09-.19,.1-.22,.11-.15,.08-.31,.16-.47,.23-.16,.07-.32,.14-.48,.19-.04,.01-.41,.13-.23,.08-.3,.08-.6,.14-.91,.18-.17,.02-.34,.04-.51,.05h-.2c.13,0,.13,0,0,0-.3-.01-.6-.03-.9-.07-.17-.02-.33-.05-.49-.08-.34-.07,.39,.13-.2-.05-.29-.09-.57-.18-.85-.3-.15-.06-.3-.14-.45-.21-.25-.11-.05-.02-.19-.1-1.08-.64-1.84-1.42-2.35-2.37-.48-.89-1.5-1.38-2.46-.94-.86,.4-1.41,1.59-.93,2.49h0Z"/></g></g></g></g></svg>