<?xml version="1.0" encoding="UTF-8"?><svg xmlns="http://www.w3.org/2000/svg" viewBox="0 0 276.95 244.04"><defs><style>.d{fill:#fcd65e;}.e{fill:#abb4b2;}.f{fill:#474546;}</style></defs><g id="a"/><g id="b"><g id="c"><g><path class="d" d="M175.12,159.83c-.35,.02-.7,.04-1.06,.06-2.33,.09-4.61,.09-6.92,.34-2.26,.24-4.43,.56-6.72,.52-2.31-.04-4.61-.1-6.92-.11-1.2,0-2.4,0-3.6,.01-.1,0-.2,0-.29,0,.17-.2,.33-.39,.51-.58,1.39-1.47,2.63-2.98,3.81-4.57,1.23-1.65,2.53-3.22,4.08-4.7,1.28-1.22,2.39-2.42,3.27-3.8-7.73-.43-15.45-1.24-23.19-1.95-1.31,1.88-2.65,3.75-4.04,5.59,.25-.07,.49-.15,.74-.25,.3-.12,.55-.32,.74-.56,1.38-.3,1.81-1.52,1.3-2.47,.22,.04,.45,.09,.67,.13,1.22,.25,2.42,.55,3.62,.84-.38,.16-.78,.26-1.16,.43h0c-.29,0-.59,0-.88,.03-1.65,.15-2.92,.65-4.01,1.66-.6,.56-1.17,1.15-1.7,1.76,.02-.22,.03-.45,0-.68-.81,1.06-1.62,2.11-2.45,3.16-7.25,11.37-13.61,23.12-21.69,34.11,3.13-1.14,6.33-2.15,9.48-3.25,3.54-1.24,6.9-2.74,10.39-4.07,1.22-.46,2.45-.9,3.69-1.32,.52-.11,1.04-.23,1.56-.34-1.1,1.52-2.12,3.09-3.1,4.65-2.92,4.65-5.49,9.45-8.24,14.17-2.78,4.78-5.57,9.55-8.28,14.35-.62,1.09-1.21,2.19-1.8,3.3-.29,.61-.6,1.21-.94,1.81-1.61,3.1-3.14,6.22-4.63,9.37-1.21,2.56-2.35,5.23-4,7.64-.01,.02-.03,.04-.04,.06-1.04,2.65-2.6,5.1-4.2,7.58,.18,.59,.73,1.07,1.41,1.29,1.77-1.91,3.66-3.74,5.64-5.52,1.43-1.77,2.88-3.54,4.34-5.3-.65,.5-1.32,.98-1.99,1.46,.37-.66,.72-1.33,1.05-2.01,.34-.01,.67-.09,.97-.23,.4-.19,.77-.41,1.14-.64,18.52-22.29,38.69-43.75,57.95-65.66-.11-.08-.23-.15-.35-.22,.19-.01,.38-.02,.57-.03,1.77-2.01,3.53-4.03,5.28-6.05Zm-43.1,14.18c-.66,.2-1.32,.39-1.99,.57-.97,.25-1.94,.52-2.89,.8,.1-.09,.21-.18,.31-.27,1.54-.38,3.05-.82,4.57-1.29,.04,.02,.09,.04,.13,.07-.04,.04-.09,.09-.12,.13Zm1.71,18.86c-.07-.05-.14-.09-.22-.13,.03-.05,.06-.1,.09-.15,.46-.75,.95-1.51,1.45-2.27-.46,.84-.89,1.69-1.32,2.54Zm1.55-23.76c-.21,.08-.43,.16-.65,.23,.21-.23,.35-.5,.41-.77,.16,.05,.32,.09,.48,.14-.08,.13-.17,.27-.25,.4Zm4.68,13.89c0-.14,0-.28-.04-.42-.03-.12-.06-.32-.06-.5,.31,.04,.62,.04,.93,.02-.28,.3-.57,.6-.83,.91Zm7.78-17.29c-.75-.06-1.51-.12-2.26-.15,.3-.68,.36-1.42,.25-2.16,.72,.43,1.67,.62,2.6,.71-.33,.25-.57,.59-.63,1-.03,.19-.01,.4,.04,.6Zm1.86-12.43s.04-.08,.06-.13c.08-.18,.33-.66,.32-.65-.03,.05,.2-.36,.29-.49,.53-.81,1.19-1.58,1.87-2.32,.83-.9,1.74-1.76,2.66-2.61,.44-.02,.88-.03,1.32-.03-.6,.64-1.26,1.25-1.9,1.86-1.56,1.51-2.88,3.12-4.13,4.8-.35,.47-.71,.93-1.08,1.39,.24-.6,.43-1.21,.58-1.83Zm2.59,19.44c.04-.21,.04-.41,0-.62,.13,.09,.27,.18,.42,.26-.14,.12-.29,.24-.43,.36Z"/><g><path class="e" d="M181.36,111.05c.04,.12,.08,.24,.12,.36v.02c-.1-.4-.13-.45-.12-.38Z"/><path class="e" d="M125.15,.8c.09-.01,.17-.02,.26-.04,.42-.06-.11,.02-.26,.04Z"/><path class="e" d="M275.49,90.65c-.94-3.38-2.25-6.62-3.51-9.87-1.33-3.43-2.5-6.91-4.25-10.14-1.63-3.01-3.47-6.02-5.63-8.65-2.52-5.25-6.11-9.99-10.44-13.7-5.33-4.57-11.52-8.13-17.75-11.14-4.11-1.98-8.39-3.65-12.8-4.64-2.56-.98-5.09-1.74-7.83-2.08-1.29-.16-2.58-.27-3.88-.36-3.99-.27-7.98-.21-11.94,.43-3.21,.53-6.78,1.93-8.57,4.89-.14,.05-.29,.11-.43,.18-1.78-7.14-5.93-13.83-10.85-18.9-5.68-5.86-12.72-10-20.17-12.75C150.24,1.26,142.46-.02,134.82,0c-1.8,0-3.6,.09-5.4,.26-.81,.08-1.62,.17-2.43,.28-.53,.07-1.05,.15-1.57,.22l-.27,.04c-.99,.14-1.98,.28-2.97,.42-5.24,.75-10.5,1.56-15.64,2.91-4.35,1.14-8.62,2.87-12.26,5.68-3.88,2.99-7.11,6.63-10,10.66-5.57,7.77-9.87,17.19-11.68,26.78-1.05,5.55-1,11.15-.22,16.67-.95-.43-1.92-.83-2.91-1.18-2.11-.74-4.26-1.24-6.44-1.55-3.13-.72-6.35-1.13-9.53-1-1.34,.06-2.67,.24-4,.44-.08,.01-.13,.02-.18,.03-.13,.02-.27,.04-.4,.05-.54,.07-1.08,.14-1.62,.21-2.31,.29-4.61,.58-6.91,.94-4.17,.65-8.23,1.71-12.02,3.72-3.35,1.78-6.37,4.33-9.04,7.09-5.41,5.57-9.68,12.32-13.76,19.01-2.2,3.61-3.97,7.38-4.78,11.62-.85,4.44-.99,8.97-.44,13.46,.51,4.13,1.54,8.4,4.67,11.24,1.16,1.05,2.44,1.83,3.8,2.39,1.61,1.73,3.69,3.02,5.69,4.14,1.9,1.06,3.78,2.02,5.81,2.61,.28,.16,.57,.3,.9,.39,5.65,1.55,11.44,2.34,17.26,2.75,2.74,.93,5.55,1.67,8.41,2.15,2.9,.49,5.79,.69,8.71,.96,2.91,.27,5.81,.67,8.71,.99,11.76,1.29,23.54,2.39,35.33,3.31,22.59,1.76,45.32,3.16,67.97,2.63,11.44-.27,22.86-1.16,34.19-2.92,2.49-.39,5.01-.79,7.54-1.26,.91,.03,1.82,.05,2.73,.06,.87,.31,1.82,.35,2.74,.03,.63,0,1.26,0,1.9,0,.63,.15,1.28,.21,1.92,.18,.54-.03,1.06-.12,1.59-.24,1.8-.05,3.6-.11,5.4-.21,25.78-1.41,58.72-23.51,49.91-55.3ZM14.26,122.63h0s.05,.07,.08,.13h0s-.06-.1-.07-.13Zm.47,.8s-.06-.1-.09-.16c.07,.07,.13,.16,.16,.23-.03-.03-.04-.05-.06-.07Zm-.16-1.26s-.04,0-.06,0c.25-.23,.48-.49,.68-.77,.13,.25,.24,.5,.38,.74-.33,.02-.66,.04-1,.03Zm23.01-18.71c.03-.13,.05-.26,.08-.39,.03-.11,.06-.21,.09-.32,.06,.3,.14,.59,.23,.87-.14-.05-.27-.11-.41-.16Zm9.36-25.2c-.51,.2-1,.43-1.49,.66,1.04-1.14,2.12-2.22,3.26-3.24h0c-.01,.07-.03,.13-.04,.2-.08,.63-.03,1.24,.11,1.8-.62,.14-1.24,.33-1.85,.57Zm3,18.14s.04,.01,.07,.02l.05,.04,.04,.07s-.1-.08-.15-.14Zm.33,.18h0Zm3.75-.6c.08,.18,.16,.36,.25,.51v.02c-.21-.32-.27-.49-.25-.53Zm9.75,19.44c-.3,.49-.62,.96-.94,1.44-.13,.19-.26,.38-.39,.57l-.06,.09-.06,.07c-.18,.23-.36,.45-.54,.68-.42,.04-.83,.07-1.25,.11-.17-.24-.3-.42-.22-.29-.04-.06-.07-.12-.11-.18,.5-.65,.93-1.34,1.34-2.05,.8-.24,1.6-.48,2.39-.72-.06,.09-.11,.18-.16,.28Zm.45-14.02s0-.04,0-.06c.17,0,.13,.04,0,.06Zm.86-1.02c.3-.23,.73-.48,0,0h0Zm1.87,.79c-.2-.56-.47-1.1-.78-1.61,.15-.11,.3-.21,.46-.31,.12,.36,.23,.73,.33,1.1,.07,.26,.11,.53,.17,.79-.06,.01-.12,.02-.18,.03Zm13.8-49.07v-.03c.04-.15,.07-.3,.1-.45,.04-.07,.04,.03-.1,.48Zm.75-4.14c.11-.5,.23-.99,.36-1.49,.02,.28,.03,.56,.05,.83-.14,.21-.27,.44-.4,.65Zm29.29,3.32c-.13,.2-.26,.42-.39,.63-.34,.12-.68,.26-1.02,.39,.06-.4,.12-.8,.17-1.19,.48-.31,.96-.62,1.44-.93,.38-.25,.77-.5,1.16-.75-.47,.6-.93,1.21-1.36,1.86Zm6.52-18.72c-.42,.22-.83,.47-1.25,.71-.56,.04-1.12,.09-1.68,.13,.93-.3,1.86-.61,2.78-.94,.13-.05,.27-.1,.4-.14,.09,0,.17-.02,.26-.02-.17,.09-.34,.18-.5,.27Zm9.04,62.68l-.02,.03c-.09-.04-.18-.09-.27-.13-1.04-.51-2.05-1.07-3.06-1.64-.1-.15-.21-.31-.32-.46-.36-.54-.72-.99-1.12-1.4,.41,.15,.83,.28,1.25,.39,1.27,1.02,2.61,1.9,4.03,2.62-.16,.2-.33,.4-.49,.6Zm3.82-23.58c-.13,.1-.26,.27-.38,.44,.04-.11,.16-.31,.4-.46l-.02,.02Zm.71-6.28h0c0,.13,.07,.31,.14,.5-.08-.12-.17-.31-.14-.5Zm.43,3.27c0-.69,.03-.4,0,0h0Zm0-1.89v.03c-.01,.17,0,.38,.03,.59-.05-.08-.09-.31-.03-.63Zm20.39-16.95c.14,.18,.26,.37,.39,.55,.31,.45,.63,.89,.93,1.34,.05,.07,.09,.14,.14,.21,.17,.31,.34,.62,.51,.93-.6-.09-1.2-.18-1.8-.26-.11-.98-.24-1.96-.39-2.93,.1,.08,.17,.13,.21,.15Zm-7,59.88c0-.05-.02-.11-.02-.16,0-.03,0-.06-.01-.09,.07,.42,.06,.39,.04,.25Zm1.37-99.1c-.17-.07-.34-.15-.52-.22l-.09-.04s-.08-.04-.13-.06c.54,.1,1.08,.2,1.62,.31,.08,.02,.17,.04,.25,.06-.38-.02-.76-.03-1.14-.05Zm2.71,130.39c2.13-.04,4.26-.1,6.39-.16,.13,.08,.26,.17,.39,.25-2.26-.01-4.52-.04-6.78-.08Zm23.7-34.04c-.1-.2-.19-.4-.29-.6,.22-.39,.44-.79,.64-1.19-.14,.59-.26,1.19-.35,1.79Zm15.09,11.17c-.15-.1-.31-.19-.46-.3-.35-.24-.7-.48-1.04-.73l-.08-.06c-.11-.1-.47-.39-.48-.4-.68-.61-1.32-1.26-1.93-1.95-.16-.19-.32-.38-.48-.58-.03-.04-.13-.17-.21-.27-.08-.11-.18-.25-.21-.3-.17-.26-.34-.53-.5-.8-.24-.42-.46-.86-.67-1.29l.02,.07s-.02-.05-.03-.08h0c-.06-.13-.1-.29-.11-.36,0-.03-.02-.05-.02-.08-.02-.05-.03-.11-.04-.17,.03,.02,.07,.02,.1,.04,1.48,2.4,3.53,4.24,6,5.33,.16,.71,.36,1.41,.61,2.09-.15-.05-.3-.1-.45-.16Zm41.01-39.74c0-.1-.02-.21-.03-.31,.09,.06,.17,.13,.26,.19-.08,.04-.15,.08-.23,.12Z"/></g><g><path class="f" d="M156.18,62.37l-.34-.07c.51,.54,1.03,1.09,1.54,1.63-.04-.13-.06-.26-.08-.39,.03,.21,.05,.41,.08,.62-.02-.21-.02-.42,0-.63-.03,.21-.05,.41-.08,.62,0-.03,0-.06,.01-.09,.09-.31,.11-.62,.04-.93-.01-.31-.1-.6-.26-.87-.14-.27-.33-.49-.57-.66-.21-.21-.46-.35-.75-.42l-.59-.08c-.4,0-.77,.11-1.12,.32-.15,.12-.3,.24-.45,.37-.27,.29-.46,.64-.57,1.03-.06,.29-.09,.58-.11,.88,0,.1,0,.19,0,.29,.03,.28,.05,.59,.12,.87,.07,.28,.2,.55,.31,.8,.14,.27,.33,.49,.57,.66,.21,.21,.46,.35,.75,.42l.59,.08c.4,0,.77-.11,1.12-.32,.21-.13,.42-.29,.59-.48,.01-.01,.02-.02,.03-.03,.06-.08,.12-.17,.18-.25,.06-.08,.12-.16,.18-.25,.02-.02,.03-.05,.04-.08l.22-.56v-.03s.02-.03,.02-.04c0-.01,0-.03,0-.04,.03-.21,.05-.41,.08-.62v-.03s0-.06,0-.08c-.02-.24-.04-.48-.09-.71-.11-.4-.29-.74-.57-1.03-.28-.29-.6-.49-.98-.6-.39-.11-.78-.11-1.18,0-.37,.11-.7,.31-.98,.6-.05,.04-.09,.08-.13,.12-.02,.02-.03,.04-.05,.06-.13,.17-.26,.35-.39,.53-.03,.05-.06,.1-.08,.15-.11,.23-.2,.47-.28,.71,1.45,.21,2.9,.41,4.34,.62l.02-.27c.01-.32-.05-.62-.19-.9-.09-.29-.24-.54-.46-.75-.2-.23-.44-.39-.71-.48-.26-.15-.55-.21-.85-.2l-.59,.08c-.37,.11-.7,.31-.98,.6l-.35,.47c-.2,.36-.3,.76-.3,1.18l-.02,.27c-.01,.32,.05,.62,.19,.9,.09,.29,.24,.54,.46,.75,.15,.12,.3,.24,.45,.37,.25,.17,.53,.26,.82,.28,.2,.06,.39,.06,.59,0,.29-.01,.57-.11,.82-.28,.15-.12,.3-.24,.45-.37,.27-.29,.46-.64,.57-1.03,0-.03,.02-.06,.03-.09-.07,.19-.15,.37-.22,.56,.04-.09,.08-.17,.14-.25l-.35,.47c.06-.08,.12-.14,.2-.21-1.23-.34-2.46-.69-3.7-1.03,0,.02,0,.04,.01,.07l-.08-.62s0,.09,0,.14l.08-.62s-.01,.07-.03,.11l.22-.56s-.03,.06-.05,.09c.12-.16,.23-.32,.35-.47-.03,.04-.06,.07-.09,.1,.15-.12,.3-.24,.45-.37-.03,.02-.05,.04-.08,.06,1.01,.28,2.02,.56,3.02,.84l-.02-.04,.22,.56c-.05-.13-.09-.26-.1-.4l.08,.62c-.02-.16-.02-.31,0-.47l-.08,.62s.01-.09,.02-.13l-4.26-1.24c-.05,.3-.09,.59-.11,.89,0,.1,0,.19,0,.29,.02,.3,.06,.59,.11,.89,.02,.1,.04,.19,.07,.28,.1,.4,.29,.74,.57,1.03,.28,.29,.6,.49,.98,.6l.34,.07c.29,.1,.59,.11,.88,.04,.29-.01,.57-.11,.82-.28,.26-.15,.46-.35,.62-.6,.2-.23,.33-.49,.4-.8l.08-.62c0-.42-.1-.82-.3-1.18-.12-.16-.23-.32-.35-.47-.28-.29-.6-.49-.98-.6h0Z"/><g><path class="f" d="M172.23,67.25c2.85,0,2.85-4.68,0-4.68s-2.85,4.68,0,4.68h0Z"/><path class="f" d="M170.02,64.47v.87c-.01,.32,.05,.62,.19,.9,.09,.29,.24,.54,.46,.75,.2,.23,.44,.39,.71,.48,.26,.15,.55,.21,.85,.2l.59-.08c.37-.11,.7-.31,.98-.6,.12-.16,.23-.32,.35-.47,.2-.36,.3-.76,.3-1.18v-.87c.01-.32-.05-.62-.19-.9-.09-.29-.24-.54-.46-.75-.2-.23-.44-.39-.71-.48-.26-.15-.55-.21-.85-.2-.2,.03-.39,.06-.59,.08-.37,.11-.7,.31-.98,.6-.12,.16-.23,.32-.35,.47-.2,.36-.3,.76-.3,1.18h0Z"/></g><path class="f" d="M179.1,73.97c-6.5,2.54-13.35,3.8-20.02,5.75-2.06,.6-.94,3.91,1.11,3.31,6.67-1.95,13.51-3.21,20.02-5.75,2-.78,.9-4.09-1.11-3.31h0Z"/></g></g></g></g></svg>