<?xml version="1.0" encoding="UTF-8"?><svg xmlns="http://www.w3.org/2000/svg" viewBox="0 0 249.66 239.05"><defs><style>.d{fill:#f2d76b;}.e{fill:#fcd65e;}.f{fill:#474243;}</style></defs><g id="a"/><g id="b"><g id="c"><g><path class="e" d="M247.14,108.76c-.35,1.7-1.03,3.37-2.07,4.47-2.58,2.71-5.24,5.02-8.78,6.42-.44,.17-.88,.33-1.33,.47-2.17,2.15-4.84,3.94-8.08,5.23-6.71,2.67-14.02,2.72-21.29,1.17-21.25-.27-41.46-18.15-53.66-33.65-4.16-5.28-8.06-11.37-11.01-17.8-6.66-10.48-11.22-22.34-12.95-35.03,.11-.05,.22-.1,.33-.16-1.89-9.31,.14-19.33,7.78-26.94,4.6-4.59,8.75-7.66,14.23-10.48,.32-.16,.63-.32,.95-.47-.91-.78-1.93-1.43-3.02-1.95,0-.01,0-.02-.01-.04-2.37,.06-4.73,.15-7.1,.31-4.03,.28-8.06,.71-12.07,1.24-1.47,.19-3.13,.24-4.63,.58-.56,.16-1.09,.3-1.48,.37-4.58,.85-9.14,1.79-13.69,2.76-3.21,1.97-6.79,3.21-10.48,3.78-3.4,2.07-6.71,4.33-9.94,6.68-5.07,3.69-9.82,7.61-14.03,12.33-4.31,4.84-8.16,10.1-11.66,15.59-3.46,5.43-6.77,10.99-9.03,17.09-2.21,5.97-3.66,12.21-5.92,18.16-1.12,2.94-2.28,5.88-3.07,8.94-.77,2.97-1.22,6.03-1.55,9.08-.64,5.92-.66,11.87-.24,17.8,.74,10.38,3.11,20.71,7.03,30.31,1.32,8.02,5.28,16.05,10.08,22.33,1.56,2.04,3.42,3.78,5.26,5.54,.6,1.11,1.34,2.15,2.2,3.16,.07,.08,.14,.15,.2,.23,.02,.05,.02,.09,.04,.14,.99,2.57,2.53,4.92,4.77,6.45,.53,.51,1.11,.96,1.74,1.33,.87,1.18,1.82,2.3,3,3.33,22.75,19.75,50.07,25.51,79.35,18.92,9.93-2.23,19.57-5.56,29.03-9.39,6.32-3.54,12.5-7.31,18.46-11.43,11.76-8.12,21.89-17.53,30.2-28.2,.03-.04,.06-.09,.08-.13,3.98-6.52,7.88-13.84,10.58-21.09,1.63-7.21,2.78-14.52,3.49-21.83-.32-1.87-.88-3.72-1.69-5.63ZM130.42,5.22c.86-.2,1.72-.37,2.6-.5-.1,.07-.2,.14-.31,.2-.84,.5-1.72,.94-2.6,1.37,.1-.36,.21-.71,.31-1.07ZM50.75,125.63c-.9-4.57-1.47-9.2-1.69-13.85,.25,.78,.54,1.52,.87,2.25,.04,1.07,.13,2.12,.29,3.16,.17,1.04,.37,2.07,.57,3.11-.09,1.77-.11,3.55-.04,5.34Zm1.79-38.78c-.23-.17-.49-.29-.77-.39,.52-1.53,1.07-3.04,1.64-4.55-.26,1.65-.55,3.3-.87,4.94Zm42.12,51.36c.37-1.04,.69-2.12,.99-3.23,.09,.28,.18,.57,.27,.85,.14,.43,.29,.86,.43,1.29-.6,.3-1.17,.67-1.69,1.08Zm18.85-38.34c-.61-2.4-1.17-4.82-1.68-7.25,.52,1.33,1.07,2.66,1.63,3.97,.21,.88,.43,1.76,.66,2.64-.21,.2-.41,.42-.62,.64Zm5.83,18.67c-.15-.4-.28-.8-.43-1.19,.15,.11,.29,.23,.44,.35,.09,.16,.18,.31,.28,.45,.04,.12,.08,.25,.13,.37-.14,0-.28,.02-.42,.03Zm29.01,44.21c.05-.01,.1-.03,.16-.04,.06,.03,.12,.07,.19,.1-.11-.02-.23-.04-.34-.06Zm36.89-13.79c-.07,.04-.14,.08-.21,.12-.33-.15-.66-.3-.99-.45,.4-.18,.79-.36,1.16-.53,.17,.19,.33,.39,.5,.58-.15,.09-.31,.18-.46,.28Zm61.34-28.48c-.13-.21-.25-.42-.38-.62,.11-.1,.22-.21,.33-.31,.04,.03,.08,.06,.12,.09-.02,.28-.05,.57-.07,.85Z"/><g><g><path class="f" d="M125.01,101.38c3.36-2.49-.16-6.98-3.53-4.49-3.36,2.49,.16,6.98,3.53,4.49h0Z"/><path class="f" d="M120.31,100.64l.66,.84c.23,.32,.53,.55,.9,.7,.32,.2,.69,.31,1.11,.32,.41,.04,.81,0,1.2-.16,.42-.09,.81-.27,1.16-.55l.63-.59c.36-.43,.59-.91,.7-1.43,.02-.25,.03-.5,.05-.76-.04-.52-.22-.99-.53-1.4-.22-.28-.44-.56-.66-.84-.23-.32-.53-.55-.9-.7-.32-.2-.69-.31-1.11-.32-.41-.04-.81,0-1.2,.16-.42,.09-.81,.27-1.16,.55l-.63,.59c-.36,.43-.59,.91-.7,1.43-.02,.25-.03,.5-.05,.76,.04,.52,.22,.99,.53,1.4h0Z"/></g><g><path class="f" d="M140.24,95.62c3.36-2.49-.16-6.98-3.53-4.49-3.36,2.49,.16,6.98,3.53,4.49h0Z"/><path class="f" d="M135.54,94.88c.22,.28,.44,.56,.66,.84,.23,.32,.53,.55,.9,.7,.32,.2,.69,.31,1.11,.32,.41,.04,.81,0,1.2-.16,.42-.09,.81-.27,1.16-.55l.63-.59c.36-.43,.59-.91,.7-1.43,.02-.25,.03-.5,.05-.76-.04-.52-.22-.99-.53-1.4-.22-.28-.44-.56-.66-.84-.23-.32-.53-.55-.9-.7-.32-.2-.69-.31-1.11-.32-.41-.04-.81,0-1.2,.16-.42,.09-.81,.27-1.16,.55-.21,.2-.42,.4-.63,.59-.36,.43-.59,.91-.7,1.43-.02,.25-.03,.5-.05,.76,.04,.52,.22,.99,.53,1.4h0Z"/></g><path class="f" d="M112.31,109.06c.64,3.75,3.32,6.94,7.46,8.77,4.2,1.86,9.25,1.57,13.47-.4,1.3-.61,1.63-2.24,.77-3.13-.97-1.02-2.54-1.14-3.93-.49-.21,.1-.63,.26-.18,.09-.21,.08-.42,.16-.63,.23-.42,.14-.84,.24-1.26,.35-.63,.17,.49-.05-.1,.02-.21,.03-.42,.06-.63,.08-.42,.04-.83,.05-1.25,.07-.64,.02,.52,.05-.07,0-.2-.02-.41-.03-.61-.05-.41-.04-.8-.12-1.2-.19-.61-.1,.45,.14-.08-.02-.19-.06-.38-.11-.57-.17-.41-.13-.8-.28-1.19-.45-.07-.03-.65-.32-.31-.14,.34,.19-.22-.13-.29-.17-.33-.19-.65-.4-.95-.62-.15-.11-.3-.23-.44-.34-.07-.06-.14-.12-.21-.18,.22,.2,.27,.23,.13,.11-.22-.27-.52-.51-.76-.78-.24-.27-.44-.56-.66-.84-.1-.14-.07-.1,.09,.14-.05-.07-.09-.15-.13-.23-.09-.15-.17-.31-.25-.46-.16-.31-.29-.64-.4-.96-.02-.07-.19-.63-.1-.29,.1,.34-.06-.33-.07-.39-.2-1.15-1.4-2.19-3-2.01-1.44,.16-2.86,1.22-2.65,2.45h0Z"/></g><g><path class="d" d="M55.56,219.01s0-.01,0-.02c-.77-1.5-2.3-2.56-3.72-3.59-.49-.47-1.04-.9-1.6-1.31-.42-.31-.84-.62-1.27-.93-.34-.27-.69-.52-1.04-.77-.45-.34-.91-.67-1.36-1.02-1.32-1.02-2.59-2.09-3.95-3.06-.25-.18-.49-.35-.74-.52-.14-.13-.29-.27-.43-.39,.27-.39,.53-.78,.8-1.16,.25-1.01,.56-2.01,.91-2.99,.58-.81,1.11-1.64,1.59-2.52,.62-1.12,1.2-2.25,1.76-3.4,.28-.57,.59-1.15,.76-1.76,.21-.4,.4-.81,.49-1.26,.16-.77-.33-1.47-1.14-1.5-1.05-.04-2,.7-2.84,1.24-.44,.28-.89,.52-1.31,.83-.5,.38-.97,.81-1.48,1.17-.91,.64-1.97,1.02-2.99,1.46-.02,.01-.03,.03-.05,.04-.71,.56-1.45,1.18-2.34,1.42-.14,.13-.27,.25-.4,.4-.03,.04-.05,.09-.08,.14-.34,.13-.67,.27-1,.4-.18,.07-.36,.13-.55,.2-2.49-2.94-4.93-5.93-7.65-8.66-.26-.26-.53-.44-.81-.58-.8-1.07-1.56-2.15-2.42-3.17-.17-.2-.34-.4-.52-.6-.5-.41-1-.82-1.5-1.24-.13-.07-.25-.15-.38-.2-.06-.06-.1-.14-.12-.22-.4-.34-.8-.68-1.19-1.03-.15,0-.31,.04-.45,.09,.27,1.97,.55,3.94,.7,5.92,.07,.21,.12,.42,.12,.65v.53c.17,1.12,.32,2.24,.5,3.35,.47,2.96,1.04,5.92,1.06,8.92-4.22,1.16-8.46,2.24-12.77,3.03-.29,.1-.58,.2-.87,.3-.16,.09-.31,.18-.44,.29-.14,0-.3,.01-.46,.01-1.91,.67-3.84,1.29-5.8,1.82-.23,.38-.42,.79-.59,1.21,.04,.02,.08,.05,.12,.07,.03,.56,.4,1.1,1.14,1.14,2.17-.07,4.25,.59,6.4,.78,.12,.04,.24,.09,.37,.12,4.2,.88,8.4,1.71,12.64,2.4,.72,.12,1.43,.22,2.15,.33-.07,3.64-.27,7.28,.13,10.9,.22,1.98,.47,3.97,.74,5.94,.27,1.98,.37,4.02,.85,5.97,.23,.92,1.75,1.24,2.17,.28,.45-1.04,1.16-1.97,1.54-3.05,.38-1.08,.44-2.06,1.11-3.03,.15-.21,.29-.42,.42-.64,.55-1.42,1.07-2.85,1.55-4.3,.12-.48,.25-.97,.42-1.44,.39-1.09,.68-2.22,1.06-3.31,.37-1.05,1-2,1.48-3,.15-.32,.31-.63,.47-.95,.1,.02,.2,.04,.3,.05,1.8,.23,3.62,.35,5.43,.47,2.3,.15,4.61,.24,6.92,.3,.04,0,.09,.02,.13,.03,1.83,.41,3.65,.82,5.53,.87,.09,0,.16-.03,.24-.04,.22,.11,.43,.22,.66,.31,.02,.01,.04,.03,.06,.04h0c.1,.03,.18,.08,.28,.12,1.1,.42,1.89-1.1,1.26-1.89Zm-34.01-29.2c-.06-.2-.12-.39-.17-.58,.14,.17,.29,.33,.44,.49-.1,.01-.19,.04-.27,.09Zm5.68,12.3c-.03-.15-.06-.3-.09-.44v-.05c.11,.14,.23,.28,.34,.42-.08,.02-.17,.05-.25,.07Z"/><path class="d" d="M22.75,190.86c-.04-.08-.07-.16-.11-.25,.07,.07,.13,.14,.2,.21-.03,.01-.06,.03-.09,.04Z"/><g><path class="f" d="M28.18,204.33c-.12-.09-.24-.19-.36-.28-.28-.16-.58-.24-.9-.24h-.26c-.25,0-.47,.04-.69,.15-.22,.07-.41,.19-.57,.37-.17,.16-.3,.35-.37,.57-.11,.21-.16,.44-.15,.69,.02,.16,.04,.32,.06,.47,.08,.3,.24,.56,.46,.79,.12,.09,.24,.19,.36,.28,.28,.16,.58,.24,.9,.24h.26c.24,0,.47-.04,.69-.15,.22-.07,.41-.19,.57-.37,.17-.16,.3-.35,.37-.57,.11-.21,.16-.44,.15-.69-.02-.16-.04-.32-.06-.47-.08-.3-.24-.56-.46-.79Z"/><path class="f" d="M35.22,202.15c-2.29,0-2.3,3.56,0,3.56s2.3-3.56,0-3.56Z"/></g></g><g><path class="d" d="M207.62,20.48s0,.01,0,.02c-.08,1.57,.69,3.17,1.38,4.69,.18,.62,.43,1.23,.7,1.83,.2,.46,.41,.91,.61,1.36,.16,.38,.33,.75,.5,1.13,.22,.49,.43,.99,.64,1.48,.6,1.46,1.15,2.95,1.82,4.39,.12,.26,.24,.52,.36,.78,.06,.18,.11,.35,.17,.53-.4,.18-.81,.35-1.22,.53-.68,.69-1.41,1.33-2.17,1.94-.86,.36-1.7,.76-2.51,1.22-1.04,.59-2.06,1.2-3.07,1.84-.5,.32-1.03,.62-1.47,1.03-.37,.21-.72,.45-1,.76-.49,.54-.42,1.34,.23,1.76,.85,.55,1.99,.42,2.94,.42,.5,0,.98,.03,1.48-.02,.6-.05,1.18-.17,1.78-.2,1.05-.06,2.11,.15,3.17,.31,.02,0,.04,0,.06,0,.85-.1,1.76-.22,2.62,.02,.17-.04,.35-.07,.52-.12,.05-.02,.09-.05,.13-.07,.34,.06,.68,.12,1.02,.18,.18,.03,.36,.08,.55,.11,.67,3.57,1.26,7.15,2.23,10.67,.09,.33,.23,.61,.4,.86,.15,1.24,.27,2.49,.5,3.72,.05,.25,.09,.49,.15,.73,.22,.57,.44,1.15,.66,1.72,.07,.12,.14,.24,.22,.35,.02,.08,.01,.16,0,.23,.17,.47,.34,.94,.5,1.4,.13,.07,.27,.12,.41,.15,.71-1.7,1.41-3.41,2.23-5.06,.04-.2,.1-.4,.21-.58l.25-.42c.39-.97,.79-1.94,1.17-2.92,1.01-2.59,1.95-5.22,3.35-7.63,4.04,1.16,8.07,2.39,12,3.88,.29,.06,.57,.13,.86,.19,.17,0,.34,0,.5-.02,.12,.07,.26,.14,.38,.21,1.9,.41,3.79,.86,5.66,1.41,.37-.19,.72-.42,1.06-.67-.02-.04-.04-.08-.07-.12,.24-.46,.19-1.08-.4-1.47-1.83-1.02-3.24-2.57-4.92-3.78-.08-.09-.16-.19-.25-.28-3.06-2.77-6.14-5.51-9.32-8.14-.54-.44-1.08-.88-1.63-1.32,1.78-2.87,3.68-5.66,5.07-8.75,.76-1.69,1.49-3.39,2.21-5.1,.72-1.71,1.6-3.39,2.13-5.17,.25-.84-.86-1.85-1.66-1.3-.87,.61-1.9,1-2.72,1.67-.83,.67-1.34,1.43-2.35,1.87-.22,.1-.44,.2-.65,.3-1.13,.86-2.24,1.75-3.32,2.66-.33,.33-.67,.65-1.03,.94-.84,.68-1.62,1.44-2.45,2.12-.8,.65-1.78,1.1-2.64,1.66-.27,.18-.56,.35-.84,.52-.08-.06-.15-.13-.22-.19-1.39-1.07-2.83-2.06-4.27-3.05-1.84-1.26-3.7-2.47-5.59-3.65-.03-.03-.07-.06-.1-.08-1.32-1.23-2.63-2.45-4.16-3.42-.07-.05-.14-.06-.22-.08-.13-.19-.26-.39-.4-.57-.01-.02-.02-.04-.03-.06h-.01c-.06-.07-.11-.16-.17-.24-.71-.88-2.09-.05-1.94,.88Zm14.3,40.03c-.05,.18-.09,.37-.13,.55-.03-.2-.09-.41-.13-.61,.09,.04,.18,.06,.27,.06Zm1.13-12.6c-.04,.13-.09,.26-.14,.4v.04c-.04-.17-.08-.34-.11-.51,.08,.02,.16,.05,.24,.07Z"/><g><path class="f" d="M227.91,39.84c.06,.13,.11,.27,.17,.4,.15,.27,.36,.48,.63,.64l.21,.13c.2,.13,.41,.2,.64,.22,.22,.05,.43,.05,.65-.01,.22-.04,.41-.13,.58-.28,.19-.11,.34-.27,.45-.47,.06-.14,.11-.27,.17-.41,.07-.28,.07-.57,0-.85-.06-.13-.11-.27-.17-.4-.15-.27-.36-.48-.63-.64l-.21-.13c-.2-.13-.41-.2-.64-.22-.22-.05-.43-.05-.65,.01-.22,.04-.41,.13-.58,.28-.19,.11-.34,.27-.45,.47-.06,.14-.11,.27-.17,.41-.07,.28-.07,.57,0,.85Z"/><path class="f" d="M221.05,38.1c1.9,1.13,3.59-1.71,1.69-2.84-1.9-1.13-3.59,1.71-1.69,2.84Z"/></g></g></g></g></g></svg>