<?xml version="1.0" encoding="UTF-8"?><svg xmlns="http://www.w3.org/2000/svg" viewBox="0 0 339.64 139.32"><defs><style>.d{fill:#f76757;}.e{fill:#fcd65e;}.f{fill:#d8eae6;}.g{fill:#474546;}.h{fill:#6276b7;}.i{fill:#73bc71;}</style></defs><g id="a"/><g id="b"><g id="c"><g><g><path class="d" d="M242.69,99.71c-6.27-10.03-8.75-20.17-17.5-26.1-10.48-7.11-26.88-13.31-38.35-13.89-18.39-.93-40.2,5.96-56.64,16.52-7.68,4.94-11.44,12.64-18.05,19.79-5.62,6.09-10.87,12.75-15.68,19.96,5.96-.94,11.9-1.97,17.84-3.04,3.32-.6,6.66-1.31,10.01-1.89,4.94-4.97,10.19-9.39,15.75-13.09,7.08-4.43,14.56-7.68,22.28-9.68,4.55-1.03,9.15-1.65,13.78-1.85,5.47-.24,10.96-.24,16.44,.32,5.42,.74,10.81,2.11,16,4.5,3.56,1.87,6.95,4.23,10.16,7.04,3.21,3.07,6.16,6.58,8.89,10.39l19.5-1.16c-1.39-2.68-2.86-5.3-4.44-7.81Z"/><path class="e" d="M260.58,105.13c-4.3-11.21-3.11-19.7-9.41-29.14-6.34-9.5-12.68-18.35-21.32-23.62-11.07-6.76-30.82-10.06-42.74-10.55-19.41-.8-38.84,2.71-56.38,13.35-8.15,4.94-15.86,10.9-22.96,18.11-7.12,7.23-13.72,15.42-19.67,24.33-4.26,6.37-8.21,13.12-11.89,20.14l14.46-.86c2.45-.35,4.89-.72,7.33-1.12,2.51-3.96,5.14-7.81,7.89-11.48,1.79-2.38,3.64-4.69,5.53-6.93,7.15-8.18,15-15.26,23.46-20.88,8.01-5.03,16.48-8.7,25.23-10.96,5.19-1.18,10.44-1.9,15.72-2.13,6.16-.28,12.34-.29,18.51,.35,5.95,.8,11.86,2.3,17.56,4.93,3.92,2.05,7.66,4.65,11.19,7.75,3.94,3.76,7.53,8.11,10.8,12.89,3.68,5.73,6.88,11.94,9.74,18.42l17.53-1.05c-.2-.52-.39-1.04-.58-1.56Z"/><path class="i" d="M75.9,117.75c4.77-8.49,9.94-16.56,15.57-24.04,2.09-2.79,4.26-5.47,6.47-8.09,8.55-9.81,17.95-18.26,28.08-24.97,10.08-6.37,20.77-10.97,31.8-13.76,6.37-1.45,12.81-2.32,19.3-2.63,7.61-.36,15.24-.41,22.87,.4,7.01,.92,13.97,2.66,20.68,5.78,4.64,2.41,9.08,5.48,13.25,9.16,4.43,4.22,8.47,9.09,12.13,14.47,5.68,8.82,10.33,18.68,14.34,28.94,.46,1.21,.89,2.43,1.33,3.65l17.11-1.02c-6.47-19.05-14.36-37.32-25.71-52.13-7.34-9.58-6.75-18.25-16.3-23.12-6.07-3.09-17.26-9.38-23.65-10.67-6.5-1.31-21.9-3.34-28.43-3.49-21.37-.49-38.34,9.46-57.96,20.23-17.91,9.83-33.8,24.47-47.45,42.59-9.06,12.02-17,25.55-23.95,39.92l20.52-1.23Z"/><path class="h" d="M289.77,96.74c-7.82-24.25-17.2-48.32-32.12-66.41-8.64-10.49-18.75-18.1-29.68-23.11C215.76,1.64,202.68,.22,189.99,.02c-22.67-.36-45.27,3.36-66.23,14.28-18.8,9.79-35.61,24.44-50.26,42.69-13.33,16.6-24.46,36.18-33.78,57.11-.02,1.31-.02,2.62-.02,3.94,1.47,.39,2.96,.73,4.44,.99,.42,.08,.84,.14,1.26,.2,.73,.07,1.46,.13,2.18,.21l9.02-.54c.92-1.96,1.85-3.91,2.81-5.85,6.61-13.07,14.05-25.37,22.41-36.5,2.27-3.02,4.62-5.94,7.02-8.78,9.44-10.85,19.84-20.18,31.04-27.58,11.32-7.16,23.33-12.31,35.72-15.42,7.21-1.65,14.51-2.64,21.85-3,8.49-.41,17.02-.47,25.53,.43,7.65,1,15.25,2.88,22.57,6.31,5.05,2.61,9.87,5.92,14.41,9.93,4.75,4.51,9.09,9.74,13.01,15.51,6.06,9.41,11,19.95,15.26,30.92,2.29,6.08,4.39,12.27,6.4,18.51,.28,.86,.61,1.68,.99,2.44l13.79-.82c.99-2.47,1.26-5.41,.34-8.26Z"/></g><g><path class="g" d="M173.17,35.34c-.11-.01-.22-.03-.32-.04,.51,.45,1.02,.91,1.54,1.36-.04-.11-.07-.23-.1-.34l.11,.55c-.03-.18-.04-.37-.03-.56-.01,.19-.03,.37-.04,.56,0-.03,0-.05,0-.08,.07-.28,.07-.56-.01-.83-.03-.28-.13-.53-.29-.76-.15-.23-.33-.42-.57-.55-.21-.17-.45-.28-.73-.33-.19-.01-.37-.03-.56-.04-.37,.02-.72,.14-1.03,.35-.13,.12-.27,.23-.4,.35-.24,.27-.4,.59-.48,.95-.04,.26-.06,.52-.06,.79,0,.08,0,.17,.02,.25,.04,.25,.08,.52,.16,.76,.08,.24,.22,.48,.33,.7,.15,.23,.33,.42,.57,.55,.21,.17,.45,.28,.73,.33,.19,.01,.37,.03,.56,.04,.37-.02,.72-.14,1.03-.35,.19-.13,.38-.28,.53-.46,0-.01,.02-.02,.03-.03,.05-.08,.1-.15,.16-.23,.05-.08,.11-.15,.16-.23,.01-.02,.02-.05,.03-.07l.18-.51v-.02s.01-.02,.02-.04c0-.01,0-.03,0-.04l.04-.56v-.03s0-.05,0-.07c-.03-.21-.07-.42-.13-.63-.12-.35-.32-.64-.59-.88-.27-.24-.59-.4-.95-.48-.37-.08-.74-.06-1.1,.07-.35,.12-.64,.32-.88,.59-.04,.04-.08,.07-.12,.12-.02,.02-.03,.04-.04,.06-.12,.16-.23,.33-.34,.49-.03,.04-.05,.09-.07,.13-.09,.21-.17,.43-.23,.65,1.37,.1,2.74,.21,4.11,.31v-.24c0-.29-.07-.55-.22-.79-.1-.25-.26-.47-.47-.64-.2-.19-.43-.32-.69-.39-.26-.12-.53-.16-.81-.13l-.55,.11c-.35,.12-.64,.32-.88,.59l-.3,.44c-.17,.34-.24,.69-.22,1.06v.24c0,.29,.07,.55,.22,.79,.1,.25,.26,.47,.47,.64,.15,.1,.29,.2,.44,.3,.25,.14,.51,.2,.79,.2,.19,.04,.37,.03,.55-.03,.28-.03,.53-.13,.76-.29,.13-.12,.27-.23,.4-.35,.24-.27,.4-.59,.48-.95,0-.03,.02-.05,.02-.08-.06,.17-.12,.34-.18,.51,.03-.08,.07-.16,.12-.23l-.3,.44c.05-.07,.11-.14,.17-.19l-3.52-.71s.01,.04,.01,.06l-.11-.55s.01,.08,0,.12c.01-.19,.03-.37,.04-.56,0,.03-.01,.07-.02,.1l.18-.51s-.02,.05-.04,.08l.3-.44s-.05,.07-.08,.09l.4-.35s-.05,.04-.07,.06c.96,.19,1.92,.38,2.89,.58l-.02-.03c.08,.16,.16,.32,.24,.48-.05-.11-.09-.23-.12-.35l.11,.55c-.03-.14-.03-.28-.02-.41-.01,.19-.03,.37-.04,.56,0-.04,0-.08,.01-.12-1.36-.29-2.71-.58-4.07-.86-.03,.26-.05,.53-.05,.8,0,.09,0,.17,.02,.26,.03,.26,.09,.52,.15,.78,.02,.08,.05,.17,.08,.25,.12,.35,.32,.64,.59,.88,.27,.24,.59,.4,.95,.48l.32,.04c.28,.07,.56,.07,.83-.01,.28-.03,.53-.13,.76-.29,.23-.14,.42-.33,.55-.57,.17-.21,.28-.45,.33-.73,.01-.19,.03-.37,.04-.56-.02-.37-.14-.72-.35-1.03l-.35-.4c-.27-.24-.59-.4-.95-.48h0Z"/><g><path class="g" d="M186.96,34.93c2.67-.16,2.43-4.31-.25-4.15-2.67,.16-2.43,4.31,.25,4.15h0Z"/><path class="g" d="M184.74,32.59c.02,.26,.03,.52,.05,.77,0,.29,.08,.55,.23,.79,.1,.25,.26,.47,.47,.64,.2,.19,.43,.32,.69,.39,.26,.12,.53,.16,.81,.13l.55-.11c.35-.12,.64-.32,.88-.59,.1-.15,.2-.29,.3-.44,.17-.34,.24-.69,.22-1.06l-.05-.77c0-.29-.08-.55-.23-.79-.1-.25-.26-.47-.47-.64-.2-.19-.43-.32-.69-.39-.26-.12-.53-.16-.81-.13l-.55,.11c-.35,.12-.64,.32-.88,.59l-.3,.44c-.17,.34-.24,.69-.22,1.06h0Z"/></g><path class="g" d="M191.4,40.59c-.73,3.66-3.89,6.87-7.37,8.05-3.32,1.12-6.95,.67-9.88-1.25-.7-.46-1.75,0-2.1,.69-.42,.82-.02,1.63,.69,2.1,3.67,2.41,8.47,2.81,12.57,1.33,4.37-1.58,8.24-5.65,9.15-10.26,.39-1.97-2.66-2.62-3.05-.65h0Z"/></g><g><path class="f" d="M43.89,118.84c-.02,.06-.04,.11-.06,.17h0c.05-.18,.07-.21,.06-.17Z"/><path class="f" d="M70.69,66.56l-.13-.02c-.2-.03,.05,0,.13,.02Z"/><path class="f" d="M.26,111.69c.95-7.05,5.13-14.17,12.97-19.34,11.31-7.47,19.5-6.61,30.33-.04-.55-.33,5.67-17.38,17.47-21.87,8.54-3.25,18.67-2.92,25.85,2.43,1.88,1.4,3.45,3.11,4.86,5.01,2.71,3.66,4.81,8.09,5.71,12.62,.52,2.62,.51,5.27,.15,7.88,.46-.21,.92-.4,1.4-.56,1.02-.36,2.05-.6,3.1-.75,1.51-.35,3.06-.55,4.6-.5,.65,.02,1.29,.11,1.93,.19h.09c.06,.02,.13,.03,.19,.04,.26,.03,.52,.06,.78,.09,1.11,.13,2.23,.26,3.34,.42,2.01,.3,3.98,.78,5.81,1.72,1.62,.83,3.09,2.03,4.38,3.32,2.63,2.62,4.71,5.8,6.7,8.95,1.07,1.7,1.94,3.48,2.34,5.48,.42,2.09,.51,4.24,.25,6.36-.23,1.96-.72,3.98-2.22,5.33-.55,.5-1.17,.87-1.82,1.14-.77,.82-1.77,1.44-2.73,1.97-.92,.51-1.82,.97-2.8,1.25-.13,.08-.28,.14-.43,.19-2.72,.75-5.51,1.14-8.32,1.35-1.32,.45-2.67,.8-4.05,1.04-1.4,.24-2.79,.34-4.2,.48-1.4,.14-2.8,.33-4.2,.49-5.67,.64-11.35,1.2-17.04,1.67-16.88,1.39-33.74,1.61-50.68,.74-15.37-.79-36.57-6.17-33.75-27.11Zm125.56,14.27h0s-.02,.03-.04,.06h0l.04-.06Zm-.23,.38s.03-.05,.04-.07c-.03,.03-.06,.08-.07,.11l.03-.04Zm.07-.59h.03c-.12-.11-.24-.23-.33-.36-.06,.12-.12,.24-.18,.35,.16,0,.32,.01,.48,.01Zm-11.16-8.78c-.01-.06-.03-.12-.04-.18-.01-.05-.03-.1-.05-.15-.03,.14-.07,.28-.11,.41,.07-.03,.13-.05,.2-.08Zm-4.59-11.88c.25,.09,.48,.2,.72,.31-.5-.53-1.03-1.04-1.58-1.52h0s.02,.06,.02,.1c.04,.3,.02,.58-.05,.85,.3,.07,.6,.15,.89,.26Zm-1.39,8.58s-.02,0-.03,.01l-.02,.02-.02,.03s.05-.04,.07-.07Zm-.16,.09h0Zm-1.81-.27c-.04,.09-.07,.17-.12,.24h0c.1-.14,.13-.22,.12-.24Zm-4.65,9.22c.15,.23,.3,.45,.46,.68,.06,.09,.13,.18,.19,.27l.03,.04,.03,.04c.09,.11,.18,.21,.26,.32,.2,.02,.4,.03,.6,.05,.08-.11,.14-.2,.11-.14,.02-.03,.03-.06,.05-.08-.24-.31-.45-.63-.65-.97-.39-.11-.77-.22-1.16-.33,.03,.04,.05,.09,.08,.13Zm-.26-6.62v-.03c-.08,0-.06,.02,0,.03Zm-.42-.48c-.15-.11-.36-.22,0,0h0Zm-.9,.38c.1-.26,.22-.52,.37-.76-.07-.05-.15-.1-.22-.15-.06,.17-.11,.34-.15,.52-.03,.12-.05,.25-.08,.37,.03,0,.06,0,.08,.01Zm-6.8-23.15h0c-.02-.08-.04-.15-.05-.23-.02-.03-.02,.02,.05,.23Zm-.37-1.96c-.06-.23-.11-.47-.18-.7,0,.13-.01,.26-.02,.39,.07,.1,.13,.21,.2,.31Zm-14.13,1.66c.07,.1,.13,.2,.19,.3,.17,.06,.33,.12,.49,.18-.03-.19-.06-.38-.09-.56-.23-.15-.47-.29-.7-.44-.19-.12-.37-.24-.56-.35,.23,.28,.45,.57,.66,.88Zm-3.2-8.83c.2,.11,.4,.22,.6,.33,.27,.02,.54,.04,.81,.05-.45-.14-.9-.28-1.35-.44-.06-.02-.13-.04-.19-.07-.04,0-.08,0-.12,0,.08,.04,.16,.08,.24,.13Zm-4.18,29.66h.01s.09-.03,.13-.05c.5-.24,.99-.51,1.47-.79,.05-.07,.1-.15,.15-.22,.17-.26,.35-.47,.54-.67-.2,.07-.4,.14-.6,.19-.61,.48-1.25,.91-1.94,1.25,.08,.09,.16,.19,.24,.28Zm-1.91-11.14c.06,.05,.12,.12,.18,.2-.02-.05-.08-.14-.19-.22h0Zm-.36-2.95h0c0,.06-.03,.15-.06,.23,.04-.06,.08-.15,.07-.23Zm-.2,1.55c0-.33-.01-.19,0,0h0Zm0-.89v.02c0,.08,0,.18-.01,.28,.02-.04,.04-.15,.01-.3Zm-9.89-7.95c-.07,.08-.12,.18-.19,.26-.15,.21-.3,.42-.45,.64-.02,.03-.04,.07-.07,.1-.08,.15-.16,.29-.24,.44,.29-.04,.58-.09,.87-.13,.05-.46,.11-.93,.18-1.39-.05,.04-.08,.06-.1,.07Zm3.55,28.28v-.08l.02-.04c-.03,.2-.03,.19-.02,.12Zm-.95-46.84c.08-.04,.17-.07,.25-.11l.04-.02,.06-.03c-.26,.05-.52,.1-.78,.15-.04,0-.08,.02-.12,.03,.18-.01,.37-.02,.55-.03Zm-.93,61.64c-1.03-.01-2.05-.04-3.08-.06-.06,.04-.13,.08-.19,.12,1.09-.01,2.18-.03,3.27-.06Zm-11.54-16.02c.05-.09,.09-.19,.14-.29-.11-.18-.21-.37-.31-.56,.07,.28,.13,.56,.18,.84Zm-7.25,5.32c.07-.05,.15-.09,.22-.14,.17-.11,.34-.23,.5-.35l.04-.03c.05-.05,.22-.18,.23-.19,.33-.29,.64-.6,.92-.93,.08-.09,.16-.18,.23-.27,.02-.02,.06-.08,.1-.13,.04-.05,.08-.12,.1-.14,.08-.12,.16-.25,.24-.38,.12-.2,.22-.41,.32-.61v.03s0-.03,0-.04h0c.03-.06,.05-.14,.05-.17v-.04s.03-.05,.03-.08c-.02,0-.03,.01-.05,.02-.71,1.14-1.69,2.02-2.88,2.54-.08,.34-.17,.67-.29,.99,.07-.02,.14-.05,.22-.08Zm-19.91-18.66s0-.1,.01-.15c-.04,.03-.08,.06-.12,.09,.04,.02,.07,.03,.11,.05Z"/></g><g><path class="f" d="M259.55,116.68c-.02,.05-.03,.11-.05,.17h0c.05-.17,.06-.2,.05-.17Z"/><path class="f" d="M283.71,65.96l-.11-.02c-.18-.03,.05,0,.11,.02Z"/><path class="f" d="M220.19,109.73c.86-6.85,4.63-13.75,11.7-18.76,10.2-7.24,17.59-6.41,27.36-.02-.5-.32,5.11-16.87,15.75-21.22,7.7-3.15,16.84-2.82,23.32,2.37,1.7,1.36,3.11,3.02,4.38,4.87,2.45,3.55,4.34,7.86,5.16,12.25,.47,2.54,.47,5.11,.14,7.65,.41-.2,.83-.38,1.26-.55,.92-.35,1.85-.58,2.8-.73,1.36-.34,2.76-.54,4.15-.48,.58,.02,1.16,.1,1.74,.19h.08c.06,.02,.12,.03,.17,.04,.24,.03,.47,.06,.71,.09,1.01,.13,2.01,.25,3.01,.41,1.82,.29,3.59,.76,5.24,1.67,1.46,.81,2.78,1.97,3.96,3.23,2.37,2.54,4.25,5.63,6.05,8.68,.97,1.65,1.75,3.38,2.11,5.32,.38,2.03,.46,4.11,.23,6.17-.21,1.9-.65,3.86-2,5.17-.5,.48-1.06,.84-1.65,1.11-.69,.8-1.6,1.39-2.46,1.91-.83,.49-1.64,.94-2.52,1.21-.12,.07-.25,.14-.39,.18-2.45,.72-4.97,1.1-7.51,1.31-1.19,.43-2.41,.78-3.66,1.01-1.26,.23-2.52,.33-3.79,.46-1.26,.13-2.53,.32-3.79,.48-5.12,.62-10.24,1.16-15.37,1.61-15.23,1.34-30.43,1.55-45.72,.7-13.86-.78-33-6.01-30.46-26.32Zm113.27,13.9h0s-.02,.03-.03,.06h0l.03-.06Zm-.2,.37s.02-.05,.04-.07c-.03,.03-.06,.08-.07,.11l.03-.03Zm.06-.58h.03c-.11-.11-.21-.22-.3-.35-.05,.11-.1,.23-.16,.34,.14,0,.29,.01,.44,.01Zm-10.07-8.52c-.01-.06-.02-.12-.04-.18-.01-.05-.03-.1-.04-.15-.03,.14-.06,.27-.1,.4,.06-.03,.12-.05,.18-.08Zm-4.15-11.53c.22,.09,.44,.19,.65,.3-.45-.52-.93-1.01-1.43-1.48h0s.01,.06,.02,.09c.04,.29,.02,.57-.04,.83,.27,.06,.54,.15,.81,.26Zm-1.25,8.33s-.02,0-.03,.01l-.02,.02-.02,.03s.04-.04,.06-.06Zm-.14,.08h0Zm-1.63-.26c-.03,.08-.07,.16-.11,.24h0c.09-.14,.12-.22,.11-.24Zm-4.19,8.94c.13,.22,.27,.44,.41,.66,.06,.09,.12,.17,.17,.26l.03,.04,.03,.03c.08,.1,.16,.21,.24,.31,.18,.02,.36,.03,.54,.05,.07-.11,.13-.19,.1-.13,.02-.03,.03-.05,.05-.08-.22-.3-.41-.61-.59-.94-.35-.11-.7-.21-1.04-.32,.02,.04,.05,.08,.07,.13Zm-.23-6.43v-.03c-.07,0-.05,.02,0,.03Zm-.38-.47c-.13-.11-.32-.22,0,0h0Zm-.81,.37c.09-.26,.2-.5,.34-.74-.07-.05-.13-.1-.2-.14-.05,.17-.1,.33-.14,.5-.03,.12-.05,.24-.07,.36,.03,0,.05,0,.08,.01Zm-6.15-22.47h0c-.02-.08-.03-.15-.04-.22-.02-.03-.02,.01,.04,.22Zm-.34-1.9c-.05-.23-.1-.45-.16-.68,0,.13-.01,.25-.02,.38,.06,.1,.12,.2,.18,.3Zm-12.74,1.6c.06,.09,.11,.19,.17,.29,.15,.06,.3,.12,.45,.18-.03-.18-.05-.37-.08-.55-.21-.14-.42-.28-.63-.42-.17-.12-.34-.23-.5-.34,.21,.27,.41,.55,.6,.85Zm-2.89-8.57c.18,.1,.36,.21,.55,.32,.24,.02,.49,.04,.73,.05-.41-.13-.81-.28-1.21-.42-.06-.02-.12-.04-.17-.06h-.11c.07,.03,.15,.07,.22,.11Zm-3.76,28.78h.01s.08-.03,.12-.05c.45-.24,.89-.49,1.33-.76,.05-.07,.09-.14,.14-.21,.15-.25,.31-.46,.49-.65-.18,.07-.36,.13-.54,.18-.55,.47-1.13,.88-1.75,1.21,.07,.09,.14,.18,.21,.28Zm-1.73-10.81c.06,.05,.11,.12,.17,.2-.02-.05-.07-.14-.17-.21h0Zm-.33-2.87h0c0,.06-.03,.14-.06,.23,.04-.05,.07-.14,.06-.23Zm-.18,1.5c0-.32-.01-.18,0,0h0Zm0-.87v.02c0,.08,0,.17,0,.27,.02-.04,.04-.14,0-.29Zm-8.93-7.72c-.06,.08-.11,.17-.17,.26-.14,.21-.27,.41-.4,.62-.02,.03-.04,.06-.06,.1-.07,.14-.15,.28-.22,.43,.26-.04,.52-.08,.78-.12,.04-.45,.1-.9,.16-1.35-.04,.04-.07,.06-.09,.07Zm3.21,27.45v-.11c-.01,.19,0,.18,0,.11Zm-.87-45.46l.22-.1,.04-.02,.05-.03c-.24,.05-.47,.09-.7,.15-.04,0-.07,.02-.11,.03,.17-.01,.33-.02,.5-.02Zm-.81,59.82c-.93-.01-1.85-.04-2.78-.06-.06,.04-.11,.08-.17,.11,.98-.01,1.97-.03,2.95-.06Zm-10.41-15.55c.04-.09,.08-.18,.12-.28-.1-.18-.19-.36-.28-.54,.06,.27,.12,.54,.16,.82Zm-6.54,5.16c.07-.05,.13-.09,.2-.14,.15-.11,.3-.22,.45-.34l.04-.03s.2-.18,.21-.18c.29-.28,.57-.58,.83-.9,.07-.09,.14-.18,.21-.27,.01-.02,.06-.08,.09-.13,.03-.05,.08-.12,.09-.14,.07-.12,.15-.24,.21-.37,.1-.19,.2-.39,.29-.6v.03s0-.03,0-.04h0c.02-.06,.04-.13,.05-.17v-.04s.02-.05,.03-.08c-.01,0-.03,.01-.04,.02-.64,1.1-1.53,1.95-2.6,2.46-.07,.33-.15,.65-.26,.96,.07-.02,.13-.05,.19-.07Zm-17.97-18.12s0-.09,.01-.14c-.04,.03-.07,.06-.11,.09,.03,.02,.07,.03,.1,.05Z"/></g></g></g></g></svg>