<?xml version="1.0" encoding="UTF-8"?><svg xmlns="http://www.w3.org/2000/svg" viewBox="0 0 271.68 247.56"><defs><style>.d{fill:#b4bfbd;}.e{fill:#474546;}</style></defs><g id="a"/><g id="b"><g id="c"><g><g><path class="d" d="M177.9,102.96c.04,.11,.08,.22,.11,.33v.02c-.1-.37-.13-.42-.11-.35Z"/><path class="d" d="M122.77,.74c.09-.01,.17-.02,.26-.03,.41-.06-.11,.01-.26,.03Z"/><path class="d" d="M270.25,84.04c-.92-3.13-2.2-6.14-3.44-9.15-1.31-3.18-2.46-6.41-4.17-9.4-1.59-2.79-3.41-5.58-5.52-8.02-2.47-4.87-6-9.27-10.24-12.7-5.23-4.24-11.3-7.54-17.41-10.33-4.03-1.84-8.23-3.38-12.55-4.3-2.51-.91-4.99-1.61-7.68-1.92-1.26-.15-2.53-.26-3.81-.34-3.92-.25-7.83-.2-11.71,.4-3.15,.49-6.65,1.79-8.41,4.54-.14,.05-.28,.1-.42,.16-1.75-6.62-5.82-12.82-10.64-17.52-5.57-5.43-12.48-9.27-19.79-11.82C147.38,1.17,139.75-.02,132.25,0c-1.77,0-3.53,.08-5.29,.24-.8,.07-1.59,.16-2.39,.26-.52,.07-1.03,.14-1.54,.21l-.27,.04c-.97,.13-1.94,.26-2.91,.39-5.14,.7-10.3,1.45-15.34,2.7-4.26,1.06-8.46,2.66-12.03,5.26-3.81,2.77-6.97,6.14-9.81,9.89-5.47,7.21-9.68,15.94-11.46,24.83-1.03,5.15-.98,10.34-.22,15.46-.93-.4-1.88-.77-2.85-1.09-2.07-.69-4.18-1.15-6.31-1.44-3.07-.67-6.23-1.05-9.35-.93-1.32,.05-2.62,.22-3.92,.41l-.18,.03c-.13,.02-.26,.03-.39,.05-.53,.07-1.06,.13-1.59,.2-2.26,.27-4.53,.54-6.78,.87-4.09,.61-8.08,1.58-11.79,3.45-3.28,1.65-6.25,4.02-8.87,6.57-5.31,5.17-9.5,11.43-13.5,17.63-2.16,3.34-3.89,6.84-4.69,10.78-.84,4.11-.97,8.32-.43,12.48,.5,3.83,1.51,7.79,4.59,10.42,1.13,.97,2.39,1.69,3.72,2.22,1.58,1.6,3.62,2.8,5.58,3.84,1.87,.99,3.71,1.87,5.7,2.42,.27,.15,.56,.28,.88,.36,5.54,1.43,11.22,2.17,16.93,2.55,2.69,.86,5.44,1.54,8.25,2,2.85,.46,5.68,.64,8.54,.89,2.85,.25,5.69,.62,8.54,.92,11.54,1.2,23.09,2.22,34.66,3.07,22.16,1.63,44.45,2.93,66.68,2.43,11.23-.25,22.43-1.07,33.54-2.71,2.44-.36,4.92-.73,7.39-1.17,.89,.03,1.79,.04,2.68,.06,.86,.29,1.79,.32,2.69,.03,.62,0,1.24,0,1.86,0,.62,.14,1.25,.2,1.88,.17,.53-.03,1.04-.11,1.56-.22,1.77-.04,3.53-.1,5.3-.2,25.29-1.31,57.6-21.8,48.96-51.27ZM13.99,113.7h0s.05,.07,.07,.12h0s-.06-.09-.07-.12Zm.46,.74s-.06-.09-.09-.15c.06,.07,.13,.15,.15,.21-.03-.03-.04-.05-.06-.07Zm-.15-1.17s-.04,0-.06,0c.25-.22,.48-.45,.67-.72,.13,.23,.24,.46,.37,.69-.33,.02-.65,.03-.98,.03Zm22.57-17.35c.03-.12,.05-.24,.08-.36,.03-.1,.06-.2,.09-.3,.06,.27,.14,.54,.22,.81-.13-.05-.27-.1-.4-.15Zm9.18-23.36c-.5,.18-.98,.4-1.46,.61,1.02-1.05,2.08-2.06,3.2-3h0c-.01,.06-.03,.12-.04,.19-.08,.58-.03,1.15,.11,1.67-.61,.13-1.21,.31-1.81,.53Zm2.94,16.82s.04,.01,.06,.02l.04,.04,.04,.07s-.1-.08-.15-.13Zm.32,.17h0Zm3.68-.55c.07,.17,.15,.33,.25,.47v.02c-.2-.29-.26-.46-.25-.49Zm9.56,18.03c-.3,.45-.61,.89-.92,1.33-.13,.18-.26,.35-.38,.52l-.06,.08s-.03,.04-.06,.07c-.17,.21-.35,.42-.53,.63-.41,.03-.81,.07-1.22,.11-.17-.22-.3-.39-.22-.27-.04-.05-.07-.11-.1-.16,.49-.6,.92-1.24,1.31-1.9,.78-.22,1.56-.44,2.35-.67-.05,.08-.1,.17-.16,.26Zm.44-12.99s0-.03,0-.05c.16,0,.13,.04,0,.05Zm.84-.95c.29-.22,.72-.44,0,0h0Zm1.83,.73c-.2-.52-.46-1.02-.77-1.49,.15-.1,.3-.2,.45-.29,.12,.34,.22,.68,.32,1.02,.07,.24,.11,.49,.17,.73-.06,0-.11,.02-.17,.03Zm13.54-45.5v-.03c.04-.13,.07-.27,.1-.42,.04-.06,.04,.03-.1,.45Zm.73-3.84c.11-.46,.23-.92,.35-1.38,.02,.26,.03,.51,.05,.77-.14,.2-.26,.4-.4,.6Zm28.73,3.08c-.13,.19-.25,.39-.38,.58-.34,.12-.67,.24-1,.36,.06-.37,.11-.74,.17-1.11,.47-.29,.94-.57,1.41-.86,.38-.23,.75-.47,1.13-.7-.47,.55-.91,1.13-1.33,1.73Zm6.4-17.36c-.41,.21-.82,.44-1.22,.66-.55,.04-1.1,.08-1.65,.12,.92-.28,1.83-.57,2.73-.87,.13-.04,.26-.09,.39-.13,.08,0,.17-.01,.25-.02-.16,.08-.33,.17-.5,.25Zm8.87,58.12l-.02,.03c-.09-.04-.18-.08-.27-.12-1.02-.47-2.01-.99-3-1.52-.1-.14-.21-.29-.31-.43-.35-.51-.71-.92-1.1-1.3,.4,.14,.81,.26,1.23,.36,1.24,.94,2.56,1.77,3.96,2.43-.16,.19-.32,.37-.48,.56Zm3.75-21.86c-.13,.1-.25,.25-.37,.4,.03-.1,.16-.29,.39-.43v.02Zm.68-5.82h0c0,.12,.07,.29,.13,.46-.08-.11-.16-.29-.14-.46Zm.42,3.03c0-.64,.03-.37,0,0h0Zm0-1.75v.03c-.01,.16,0,.35,.03,.55-.05-.07-.09-.29-.03-.58Zm20-15.71c.13,.16,.26,.34,.38,.51,.31,.41,.61,.83,.92,1.25,.05,.06,.09,.13,.14,.19,.17,.28,.34,.57,.5,.86-.59-.08-1.18-.16-1.77-.24-.11-.91-.23-1.82-.38-2.72,.1,.07,.17,.12,.21,.14Zm-6.86,55.51c0-.05-.02-.1-.02-.15v-.08c.05,.39,.05,.37,.02,.23Zm1.34-91.88l-.51-.21-.09-.04s-.08-.04-.12-.05c.53,.09,1.06,.18,1.59,.29,.08,.02,.17,.04,.25,.06-.37-.02-.75-.03-1.12-.04Zm2.65,120.89c2.09-.04,4.18-.1,6.26-.15,.13,.08,.26,.15,.38,.23-2.22-.01-4.43-.04-6.65-.08Zm23.25-31.56c-.1-.19-.19-.37-.28-.56,.22-.36,.43-.73,.63-1.1-.14,.55-.25,1.1-.35,1.66Zm14.8,10.36c-.15-.09-.3-.18-.45-.27-.35-.22-.69-.45-1.02-.68l-.08-.06c-.11-.09-.46-.36-.47-.37-.67-.56-1.3-1.17-1.89-1.81-.16-.17-.32-.35-.47-.53-.03-.04-.13-.15-.21-.25-.08-.11-.17-.24-.2-.28-.17-.24-.33-.49-.49-.74-.24-.39-.45-.79-.66-1.2l.02,.06s-.02-.05-.03-.08h0c-.05-.12-.1-.27-.11-.33,0-.02-.02-.05-.02-.07-.02-.05-.03-.1-.04-.15,.03,.01,.06,.02,.1,.04,1.45,2.22,3.46,3.93,5.88,4.94,.16,.66,.36,1.3,.6,1.94-.15-.05-.29-.1-.44-.15Zm40.23-36.84c0-.1-.02-.19-.03-.29,.08,.06,.17,.12,.25,.18-.07,.04-.15,.07-.22,.11Z"/></g><g><path class="e" d="M162.09,49.87c-.11-.02-.22-.04-.34-.07,.5,.5,1.01,1.01,1.51,1.51-.04-.12-.06-.24-.08-.36,.03,.19,.05,.38,.08,.58-.02-.19-.02-.39,0-.58l-.08,.58s0-.06,.01-.08c.09-.29,.1-.58,.04-.86-.01-.29-.1-.56-.26-.81-.14-.25-.32-.46-.56-.61-.21-.19-.46-.32-.74-.39l-.58-.08c-.39,0-.76,.1-1.09,.3-.15,.11-.29,.23-.44,.34-.27,.27-.45,.59-.56,.96-.05,.27-.09,.54-.11,.81,0,.09,0,.18,0,.27,.03,.26,.05,.54,.12,.81,.07,.26,.19,.51,.3,.75,.14,.25,.32,.46,.56,.61,.21,.19,.46,.32,.74,.39,.19,.03,.38,.05,.58,.08,.39,0,.76-.1,1.09-.3,.21-.12,.41-.27,.58-.44,0-.01,.02-.02,.03-.03,.06-.08,.12-.15,.18-.23,.06-.08,.12-.15,.18-.23,.02-.02,.03-.05,.04-.07,.07-.17,.15-.35,.22-.52v-.02s.02-.03,.02-.04c0-.01,0-.03,0-.04,.03-.19,.05-.38,.08-.58v-.03s0-.05,0-.08c-.02-.22-.04-.44-.09-.66-.1-.37-.29-.69-.56-.96-.27-.27-.59-.45-.96-.56-.38-.1-.77-.1-1.15,0-.37,.1-.69,.29-.96,.56-.04,.04-.09,.07-.13,.11-.02,.02-.03,.04-.05,.06-.13,.16-.26,.32-.38,.49-.03,.04-.06,.09-.08,.14-.11,.21-.2,.43-.28,.66l4.26,.58,.02-.25c.01-.3-.05-.58-.19-.84-.09-.27-.24-.5-.45-.7-.2-.21-.43-.36-.7-.45-.26-.14-.54-.2-.84-.19-.19,.03-.38,.05-.58,.08-.37,.1-.69,.29-.96,.56-.11,.15-.23,.29-.34,.44-.2,.34-.29,.7-.3,1.09l-.02,.25c-.01,.3,.05,.58,.19,.84,.09,.27,.24,.5,.45,.7l.44,.34c.25,.16,.52,.24,.81,.26,.19,.05,.38,.05,.58,0,.29-.01,.56-.1,.81-.26,.15-.11,.29-.23,.44-.34,.27-.27,.45-.59,.56-.96,0-.03,.02-.05,.03-.08-.07,.17-.15,.35-.22,.52,.04-.08,.08-.16,.14-.23l-.34,.44c.06-.07,.12-.13,.19-.19-1.21-.32-2.42-.64-3.62-.96,0,.02,0,.04,.01,.06l-.08-.58s0,.08,0,.13c.03-.19,.05-.38,.08-.58,0,.04-.01,.07-.03,.1l.22-.52s-.03,.06-.05,.08l.34-.44s-.06,.07-.09,.09l.44-.34s-.05,.04-.08,.05c.99,.26,1.98,.52,2.97,.78l-.02-.04,.22,.52c-.05-.12-.08-.24-.1-.37l.08,.58c-.02-.14-.02-.29,0-.43l-.08,.58s.01-.08,.02-.12c-1.39-.38-2.79-.77-4.18-1.15-.05,.27-.09,.55-.11,.83,0,.09,0,.18,0,.27,.02,.28,.06,.55,.11,.82,.02,.09,.04,.18,.06,.26,.1,.37,.29,.69,.56,.96,.27,.27,.59,.45,.96,.56l.34,.07c.29,.09,.58,.1,.86,.04,.29-.01,.56-.1,.81-.26,.25-.14,.46-.32,.61-.56,.19-.21,.32-.46,.39-.74,.03-.19,.05-.38,.08-.58,0-.39-.1-.76-.3-1.09-.11-.15-.23-.29-.34-.44-.27-.27-.59-.45-.96-.56h0Z"/><g><path class="e" d="M177.84,54.39c2.79,0,2.8-4.34,0-4.34s-2.8,4.34,0,4.34h0Z"/><path class="e" d="M175.67,51.81v.81c-.01,.3,.05,.58,.19,.84,.09,.27,.24,.5,.45,.7,.2,.21,.43,.36,.7,.45,.26,.14,.54,.2,.84,.19,.19-.03,.38-.05,.58-.08,.37-.1,.69-.29,.96-.56l.34-.44c.2-.34,.29-.7,.3-1.09v-.81c.01-.3-.05-.58-.19-.84-.09-.27-.24-.5-.45-.7-.2-.21-.43-.36-.7-.45-.26-.14-.54-.2-.84-.19-.19,.03-.38,.05-.58,.08-.37,.1-.69,.29-.96,.56l-.34,.44c-.2,.34-.29,.7-.3,1.09h0Z"/></g><path class="e" d="M174.02,63.96c-6.8,.08-13.52-1.06-20.29-1.54-2.09-.15-2.08,3.1,0,3.25,6.77,.48,13.49,1.63,20.29,1.54,2.09-.03,2.1-3.28,0-3.25h0Z"/></g><g><path class="d" d="M123.42,246.76c2.91,.28,5.82,.65,8.73,.8,0-.02,0-.04,0-.06-.05-1.77-.1-3.42,.08-5.19,.42-4.03,1.08-8.02,1.07-12.08,0-.22-.02-.43-.06-.65-2.64-.16-5.27-.35-7.92-.38-.19,0-.37-.02-.55-.03-.09,.34-.15,.69-.14,1.06,0,3.68-.53,7.31-.95,10.96-.19,1.61-.41,3.24-.3,4.86,.02,.24,.02,.48,.03,.72Z"/><path class="d" d="M57.46,183.16c2.91,.28,5.82,.65,8.73,.8,0-.02,0-.04,0-.06-.05-1.77-.1-3.42,.08-5.19,.42-4.03,1.08-8.02,1.07-12.08,0-.22-.02-.43-.06-.65-2.64-.16-5.27-.35-7.91-.38-.19,0-.37-.02-.55-.03-.09,.34-.15,.69-.14,1.06,0,3.68-.53,7.31-.95,10.96-.19,1.61-.41,3.24-.3,4.86,.02,.24,.02,.48,.03,.72Z"/><path class="d" d="M92.41,149.89c-.01,.14-.04,.27-.04,.42-.03,4.88-1.12,9.68-1.21,14.55-.01,.56,.11,1.11,.33,1.63h8.01c.21-.5,.33-1.04,.34-1.63,.09-4.88,1.18-9.67,1.21-14.55,0-.14-.03-.28-.04-.42h-8.59Z"/><path class="d" d="M134.2,174.83c-.07,.24-.11,.49-.11,.75v14.6c0,.2,.03,.4,.07,.6,2.83,.08,5.66,.13,8.49,.16,.07-.24,.11-.5,.11-.76v-14.6c0-.28-.05-.55-.14-.82-2.8,.12-5.61,.11-8.43,.07Z"/><path class="d" d="M166.69,147.44c-.21,.5-.34,1.06-.34,1.65v10.73h8.68v-10.73c0-.66-.17-1.32-.47-1.91-2.62,.16-5.24,.23-7.86,.26Z"/><path class="d" d="M204.27,174.13c.02-.18,.06-.35,.06-.54v-13.34c0-.46-.08-.91-.23-1.34-2.71,.1-5.43,.05-8.16-.14-.17,.46-.28,.95-.28,1.48v13.34c0,.17,.02,.35,.04,.52,2.86,.09,5.74,.19,8.58,.03Z"/><path class="d" d="M102.65,213.28c1.17-.05,2.34-.07,3.51-.09-.07-1.05-.03-2.1,.06-3.15v-.03l.02-.09c.05-.32,.1-.64,.15-.96,.09-.52,.19-1.04,.29-1.56,.47-2.42,.96-4.83,1.09-7.26,.03-.49-.17-.96-.52-1.38-.96,0-1.92,0-2.88-.03l-2.85,.18c-.61,.04-1.16,0-1.66-.08-.45,.53-.71,1.16-.75,1.86-.02,.33-.04,.66-.07,.98,0,.06,0,.22-.01,.34,0-.05,0-.12,0-.21,0,.55-.17,1.14-.27,1.69-.19,1.08-.42,2.16-.63,3.24-.4,2.11-.73,4.24-.66,6.36,1.73,.04,3.46,.11,5.18,.18Z"/><path class="d" d="M162.15,212.47c-.08,.32-.13,.66-.13,1.01v14.55c0,.35,.05,.7,.14,1.04,1.68,.01,3.37,.04,5.05,.09,1.11,0,2.22-.02,3.33-.06,.09-.34,.15-.69,.15-1.07v-14.55c0-.37-.06-.74-.16-1.1-2.77,.14-5.57,.11-8.39,.08Z"/></g></g></g></g></svg>