<?xml version="1.0" encoding="UTF-8"?><svg xmlns="http://www.w3.org/2000/svg" viewBox="0 0 265.48 258.59"><defs><style>.d{fill:#cdddd9;}.e{fill:#d9e7e4;}.f{fill:#474546;}</style></defs><g id="a"/><g id="b"><g id="c"><g><g><path class="d" d="M173.84,100.61c.04,.11,.08,.22,.11,.33v.02c-.09-.36-.12-.41-.11-.34Z"/><path class="d" d="M119.97,.72c.08-.01,.17-.02,.25-.03,.4-.05-.1,.01-.25,.03Z"/><path class="d" d="M264.08,82.12c-.9-3.06-2.15-6-3.36-8.94-1.28-3.11-2.4-6.26-4.08-9.19-1.56-2.72-3.33-5.45-5.39-7.83-2.42-4.76-5.86-9.05-10.01-12.41-5.11-4.14-11.04-7.37-17.01-10.09-3.94-1.8-8.04-3.3-12.27-4.2-2.46-.89-4.88-1.57-7.5-1.88-1.24-.14-2.48-.25-3.72-.33-3.83-.24-7.65-.19-11.45,.39-3.08,.48-6.5,1.75-8.22,4.43-.14,.04-.27,.1-.41,.16-1.71-6.47-5.68-12.53-10.4-17.12-5.45-5.31-12.19-9.06-19.34-11.55C144.02,1.14,136.56-.02,129.23,0c-1.73,0-3.45,.08-5.17,.23-.78,.07-1.56,.16-2.33,.25-.5,.06-1.01,.13-1.51,.2l-.26,.04c-.95,.13-1.9,.25-2.85,.38-5.03,.68-10.06,1.41-14.99,2.64-4.17,1.04-8.26,2.6-11.76,5.14-3.72,2.71-6.81,6-9.59,9.66-5.34,7.04-9.46,15.57-11.19,24.26-1.01,5.03-.96,10.1-.21,15.1-.91-.39-1.84-.75-2.79-1.06-2.02-.67-4.09-1.12-6.17-1.41-3-.65-6.09-1.03-9.14-.91-1.29,.05-2.56,.22-3.83,.4-.08,.01-.13,.02-.17,.02-.13,.02-.26,.03-.38,.05-.52,.07-1.04,.13-1.55,.19-2.21,.27-4.42,.53-6.63,.85-3.99,.59-7.89,1.54-11.52,3.37-3.21,1.61-6.1,3.93-8.67,6.42-5.19,5.05-9.28,11.17-13.19,17.22-2.11,3.27-3.8,6.69-4.58,10.53-.82,4.02-.95,8.13-.42,12.19,.49,3.75,1.48,7.61,4.48,10.18,1.11,.95,2.34,1.65,3.64,2.17,1.54,1.56,3.53,2.73,5.45,3.75,1.82,.96,3.62,1.83,5.57,2.36,.27,.15,.55,.27,.86,.35,5.41,1.4,10.96,2.12,16.55,2.49,2.63,.84,5.32,1.51,8.07,1.95,2.78,.45,5.55,.62,8.35,.87,2.79,.24,5.56,.61,8.35,.9,11.27,1.17,22.56,2.17,33.87,3,21.65,1.59,43.44,2.86,65.16,2.38,10.97-.24,21.91-1.05,32.77-2.64,2.38-.35,4.8-.72,7.22-1.14,.87,.02,1.75,.04,2.62,.05,.84,.28,1.75,.32,2.62,.02,.61,0,1.21,0,1.82,0,.6,.13,1.22,.19,1.84,.16,.52-.03,1.02-.11,1.52-.22,1.73-.04,3.45-.1,5.18-.19,24.71-1.28,56.29-21.3,47.84-50.1ZM13.67,111.1h0s.04,.07,.07,.12h0s-.06-.09-.07-.12Zm.45,.72s-.06-.09-.09-.14c.06,.07,.13,.15,.15,.21-.03-.03-.04-.04-.06-.07Zm-.15-1.14s-.04,0-.06,0c.24-.21,.46-.44,.65-.7,.12,.22,.23,.45,.36,.67-.32,.02-.64,.03-.96,.03Zm22.06-16.95c.03-.12,.05-.24,.08-.35,.03-.1,.06-.19,.09-.29,.06,.27,.13,.53,.22,.79-.13-.05-.26-.1-.39-.15Zm8.97-22.83c-.49,.18-.96,.39-1.42,.6,.99-1.03,2.03-2.01,3.12-2.93h0c-.01,.06-.03,.12-.04,.18-.08,.57-.03,1.12,.11,1.63-.59,.13-1.18,.3-1.77,.51Zm2.87,16.44s.04,.01,.06,.02l.04,.04,.04,.07s-.09-.08-.14-.13Zm.31,.16h0Zm3.59-.54c.07,.16,.15,.32,.24,.46v.02c-.2-.29-.25-.45-.24-.48Zm9.34,17.61c-.29,.44-.59,.87-.9,1.3-.12,.17-.25,.34-.38,.51l-.06,.08-.06,.07c-.17,.21-.35,.41-.52,.61-.4,.03-.8,.07-1.19,.1-.16-.21-.29-.38-.21-.26-.03-.05-.07-.11-.1-.16,.48-.59,.9-1.22,1.28-1.86,.76-.22,1.53-.43,2.29-.65-.05,.08-.1,.17-.16,.25Zm.43-12.7v-.05c.16,0,.12,.04,0,.05Zm.82-.93c.29-.21,.7-.43,0,0h0Zm1.79,.72c-.2-.51-.45-.99-.75-1.45,.15-.1,.29-.19,.44-.29,.11,.33,.22,.66,.31,.99,.07,.24,.11,.48,.17,.72-.06,0-.11,.02-.17,.03Zm13.23-44.46v-.02c.04-.13,.07-.27,.09-.41,.04-.06,.04,.03-.09,.44Zm.72-3.75c.11-.45,.22-.9,.34-1.35,.02,.25,.03,.5,.04,.75-.13,.19-.26,.4-.39,.59Zm28.08,3.01c-.13,.19-.25,.38-.37,.57-.33,.11-.65,.23-.98,.35,.06-.36,.11-.72,.17-1.08,.46-.28,.92-.56,1.38-.84,.37-.23,.74-.46,1.11-.68-.45,.54-.89,1.1-1.3,1.69Zm6.25-16.96c-.4,.2-.8,.43-1.2,.64-.54,.04-1.08,.08-1.61,.11,.9-.27,1.79-.55,2.67-.85,.13-.04,.25-.09,.38-.13,.08,0,.16-.01,.25-.02-.16,.08-.33,.16-.48,.24Zm8.66,56.79l-.02,.03c-.09-.04-.18-.08-.26-.12-.99-.46-1.97-.97-2.93-1.49-.1-.14-.2-.28-.3-.42-.34-.49-.69-.9-1.08-1.27,.4,.13,.79,.25,1.2,.36,1.21,.92,2.5,1.73,3.87,2.37-.16,.18-.32,.36-.47,.55Zm3.66-21.36c-.12,.09-.25,.24-.36,.39,.03-.1,.16-.28,.38-.42v.02Zm.67-5.69h0c0,.12,.07,.28,.13,.45-.08-.11-.16-.28-.14-.45Zm.41,2.96c0-.62,.03-.36,0,0h0Zm0-1.71v.03c-.01,.16,0,.34,.02,.54-.05-.07-.09-.28-.02-.57Zm19.55-15.36c.13,.16,.25,.34,.37,.5,.3,.4,.6,.81,.9,1.22,.05,.06,.09,.13,.13,.19,.17,.28,.33,.56,.49,.84-.58-.08-1.15-.16-1.73-.23-.1-.89-.23-1.77-.37-2.66,.1,.07,.16,.12,.2,.14Zm-6.71,54.25s-.02-.1-.02-.15v-.08c.05,.38,.04,.36,.02,.23Zm1.31-89.78l-.49-.2-.09-.04s-.08-.04-.12-.05c.52,.09,1.04,.18,1.55,.28,.08,.02,.16,.04,.24,.05-.36-.02-.73-.03-1.09-.04Zm2.59,118.13c2.04-.04,4.08-.09,6.12-.15,.12,.07,.25,.15,.38,.22-2.17-.01-4.33-.04-6.5-.08Zm22.72-30.84c-.1-.18-.19-.36-.28-.55,.21-.35,.42-.71,.62-1.07-.13,.54-.25,1.08-.34,1.62Zm14.46,10.12c-.15-.09-.3-.18-.44-.27-.34-.21-.67-.44-1-.67l-.08-.06c-.11-.09-.45-.35-.46-.36-.65-.55-1.27-1.14-1.85-1.77-.16-.17-.31-.34-.46-.52-.03-.04-.12-.15-.2-.25-.08-.1-.17-.23-.2-.27-.16-.24-.32-.48-.47-.72-.23-.38-.44-.78-.64-1.17l.02,.06s-.02-.05-.03-.07h0c-.05-.12-.09-.26-.11-.33,0-.02-.02-.05-.02-.07-.02-.05-.03-.1-.04-.15,.03,.01,.06,.02,.09,.04,1.42,2.17,3.38,3.84,5.75,4.83,.16,.64,.35,1.27,.58,1.89-.14-.05-.29-.09-.43-.14Zm39.31-36c0-.09-.02-.19-.03-.28,.08,.06,.16,.12,.25,.18-.07,.04-.15,.07-.22,.11Z"/></g><g><g><path class="f" d="M168.56,53.44c2.6-1.32,.76-4.96-1.85-3.63-2.6,1.32-.76,4.96,1.85,3.63h0Z"/><path class="f" d="M165.44,52.31c.11,.23,.23,.45,.34,.68,.12,.26,.29,.46,.53,.61,.2,.18,.43,.31,.72,.37,.27,.08,.55,.1,.84,.04,.3,0,.59-.09,.86-.24,.17-.11,.34-.23,.5-.34,.3-.26,.52-.57,.66-.92l.13-.53c.04-.38-.02-.73-.19-1.06-.11-.23-.23-.45-.34-.68-.12-.26-.29-.46-.53-.61-.2-.18-.43-.31-.72-.37-.27-.08-.55-.1-.84-.04-.3,0-.59,.09-.86,.24l-.5,.34c-.3,.26-.52,.57-.66,.92-.04,.18-.09,.35-.13,.53-.04,.38,.02,.73,.19,1.06h0Z"/></g><g><path class="f" d="M152.88,55.46c2.6-1.32,.76-4.96-1.85-3.63-2.6,1.32-.76,4.96,1.85,3.63h0Z"/><path class="f" d="M149.77,54.33c.11,.23,.23,.45,.34,.68,.12,.26,.29,.46,.53,.61,.2,.18,.43,.31,.72,.37,.27,.08,.55,.1,.84,.04,.3,0,.59-.09,.86-.24l.5-.34c.3-.26,.52-.57,.66-.92,.04-.18,.09-.35,.13-.53,.04-.38-.02-.73-.19-1.06l-.34-.68c-.12-.26-.29-.46-.53-.61-.2-.18-.43-.31-.72-.37-.27-.08-.55-.1-.84-.04-.3,0-.59,.09-.86,.24-.17,.11-.34,.23-.5,.34-.3,.26-.52,.57-.66,.92l-.13,.53c-.04,.38,.02,.73,.19,1.06h0Z"/></g><path class="f" d="M146.09,64.19c1.57,2.87,4.59,4.86,7.91,4.86,3.55,0,6.62-2,8.23-5.13,.42-.82-.17-1.9-.97-2.21-.93-.36-1.78,.14-2.2,.97-.1,.2-.04,.08-.11,.19-.08,.13-.17,.27-.26,.39-.13,.18-.37,.49-.45,.57-.3,.33-.84,.78-1.3,1.05,.13-.08-.18,.09-.2,.1-.14,.07-.28,.14-.43,.21-.14,.06-.29,.12-.44,.18-.03,.01-.38,.12-.21,.07-.27,.07-.55,.13-.83,.17-.15,.02-.31,.04-.46,.05h-.19c.12,0,.12,0,0,0-.28,0-.55-.03-.82-.06-.15-.02-.3-.05-.45-.08-.32-.06,.36,.12-.18-.04-.26-.08-.52-.17-.78-.27-.14-.06-.28-.12-.42-.19-.23-.1-.05-.02-.18-.09-.99-.58-1.69-1.29-2.16-2.14-.44-.81-1.37-1.25-2.25-.85-.79,.36-1.29,1.44-.85,2.25h0Z"/></g><g><path class="e" d="M69.13,163.04c-2.59-.25-5.42,.66-7.44,2.39-1.93,1.65-3.53,4.51-3.67,7.14-.14,2.72,.45,5.62,2.25,7.7,1.8,2.07,4.11,3.49,6.85,3.75,2.59,.25,5.42-.66,7.44-2.39,1.93-1.65,3.53-4.51,3.67-7.14,.14-2.72-.45-5.62-2.25-7.7-1.8-2.07-4.11-3.49-6.85-3.75Z"/><path class="e" d="M117.46,212.06c-2.59-.25-5.42,.66-7.44,2.39-1.93,1.65-3.53,4.51-3.67,7.14-.14,2.72,.45,5.62,2.25,7.7,1.8,2.07,4.11,3.49,6.85,3.75,2.59,.25,5.42-.66,7.44-2.39,1.93-1.65,3.53-4.51,3.67-7.14,.14-2.72-.45-5.62-2.25-7.7-1.8-2.07-4.11-3.49-6.85-3.75Z"/><path class="e" d="M134.7,156.86c-2.59-.25-5.42,.66-7.44,2.39-1.93,1.65-3.53,4.51-3.67,7.14-.14,2.72,.45,5.62,2.25,7.7,1.8,2.07,4.11,3.49,6.85,3.75,2.59,.25,5.42-.66,7.44-2.39,1.93-1.65,3.53-4.51,3.67-7.14,.14-2.72-.45-5.62-2.25-7.7-1.8-2.07-4.11-3.49-6.85-3.75Z"/><path class="e" d="M175.51,194.43c.14-2.72-.45-5.62-2.25-7.7-1.8-2.07-4.11-3.49-6.85-3.75-2.59-.25-5.42,.66-7.44,2.39-1.93,1.65-3.53,4.51-3.67,7.14-.14,2.72,.45,5.62,2.25,7.7,1.8,2.07,4.11,3.49,6.85,3.75,2.59,.25,5.42-.66,7.44-2.39,1.93-1.65,3.53-4.51,3.67-7.14Z"/><path class="e" d="M207.12,154.44c-1.8-2.07-4.11-3.49-6.85-3.75-2.59-.25-5.42,.66-7.44,2.39-1.93,1.65-3.53,4.51-3.67,7.14-.14,2.72,.45,5.62,2.25,7.7,1.8,2.07,4.11,3.49,6.85,3.75,2.59,.25,5.42-.66,7.44-2.39,1.93-1.65,3.53-4.51,3.67-7.14,.14-2.72-.45-5.62-2.25-7.7Z"/><path class="e" d="M180.01,237.57c-2.59-.25-5.42,.66-7.44,2.39-1.93,1.65-3.53,4.51-3.67,7.14-.14,2.72,.45,5.62,2.25,7.7,1.8,2.07,4.11,3.49,6.85,3.75,2.59,.25,5.42-.66,7.44-2.39,1.93-1.65,3.53-4.51,3.67-7.14,.14-2.72-.45-5.62-2.25-7.7-1.8-2.07-4.11-3.49-6.85-3.75Z"/></g></g></g></g></svg>