<?xml version="1.0" encoding="UTF-8"?><svg xmlns="http://www.w3.org/2000/svg" viewBox="0 0 243.87 235.24"><defs><style>.d{fill:#fcd65e;}.e{fill:#474243;}</style></defs><g id="a"/><g id="b"><g id="c"><g><g><path class="d" d="M243.79,153.52c-15.52-4.98-30.87-10.43-46.07-16.27-1.55-.6-3.1-1.21-4.64-1.82,.33-1.52,.63-3.05,.91-4.58,1.34-7.35,2.6-14.8,2.6-22.28,0-7.34-1.29-14.71-4.04-21.55,11.3-4.66,22.6-9.32,33.89-13.99,1.83-.75,3.66-1.51,5.49-2.26,1.04-.43,1.89-.86,2.54-1.73-.9-1.84-1.79-3.69-2.67-5.54-.34-.61-.68-1.23-1.03-1.84-.44,0-.89,.07-1.33,.25-13.77,5.68-27.54,11.38-41.32,17.06-2.11-2.92-4.61-5.55-7.51-7.91-5.4-4.41-11.17-8.54-16.98-12.42-4.16-2.77-8.46-5.28-12.97-7.42,5.3-14.04,10.74-28.04,16.43-41.93,.75-1.84,1.51-3.68,2.28-5.52,.07-.16,.11-.32,.15-.49-2.85-.99-5.68-2.05-8.46-3.23-.27,.39-.52,.81-.72,1.28-6.16,14.83-12.03,29.78-17.72,44.8-.2,.53-.4,1.06-.6,1.59-13.3-4.39-27.52-4.01-40.94-.12-2.5-6.2-4.94-12.42-7.51-18.6-1.62-3.91-3.3-7.79-5.04-11.64-.77-1.7-1.55-3.4-2.3-5.11l-.09-.22-.08-.2c-.19-.44-.37-.88-.55-1.33-.36-.89-.71-1.79-1.03-2.69-.64-1.78-1.2-3.59-1.67-5.42-.24-.95-.86-1.78-1.66-2.39-.6,.19-1.2,.39-1.8,.58-.5,.21-1.01,.41-1.52,.59-1.35,.46-2.68,.91-4.02,1.35-.2,.73-.23,1.51-.02,2.32,1.94,7.66,5.67,14.73,8.8,21.96,.08,.19,.16,.37,.24,.56,.2,.47,.4,.95,.6,1.42,.41,.96,.81,1.92,1.21,2.88,.77,1.86,1.53,3.72,2.28,5.58,1.51,3.73,2.99,7.47,4.49,11.2,.29,.72,.59,1.44,.88,2.16-4.58,1.77-9.06,3.79-13.46,5.91-5.52,2.66-10.71,5.9-15.28,9.96-2.58,2.3-4.87,4.84-6.89,7.57-11.67-5.65-23.33-11.31-35.02-16.93-1.85-.89-3.7-1.78-5.55-2.67-.86-.41-1.85-.59-2.8-.53-1.08,2.34-2.26,4.61-3.62,6.8,.37,.69,.92,1.29,1.69,1.66,13.5,6.48,26.96,13.02,40.44,19.54-2.12,4.18-3.75,8.62-4.9,13.18-1.56,6.14-2.38,12.5-2.9,18.81-.51,6.34-.55,12.74,.26,19.06,.12,.97,.27,1.93,.42,2.89-12.24,4.54-24.52,8.98-36.84,13.3-1.87,.66-3.74,1.31-5.61,1.96-.85,.3-1.64,.81-2.24,1.46,.3,1.27,.58,2.54,.85,3.82,.31,1.12,.59,2.25,.86,3.39,.93,.42,1.98,.54,3.02,.18,14.07-4.89,28.09-9.94,42.06-15.12,.82,2.66,1.83,5.27,3.07,7.82,2.87,5.87,7.06,11.09,12.19,15.2,.74,.59,1.49,1.16,2.25,1.72,5.13,5.07,11.01,9.44,17.25,12.84,2.84,1.55,5.75,2.84,8.74,3.91-2.37,5.9-4.76,11.78-7.22,17.64-.77,1.84-1.54,3.67-2.32,5.5-.38,.88-.75,1.76-1.13,2.64-.09,.2-.17,.41-.26,.61v.03l-.05,.09c-.2,.47-.41,.95-.61,1.42-1.61,3.72-3.24,7.44-4.9,11.14-.81,1.82-1.63,3.64-2.46,5.45-.25,.55-.42,1.14-.5,1.74,2.9,.86,5.8,1.75,8.69,2.65,6.75-14.85,13.12-29.86,19.21-44.98,.19-.48,.38-.96,.57-1.44,.26,.05,.52,.11,.79,.17,8.29,1.59,16.67,2.94,25.11,1.83,7.66-1.01,14.93-3.59,22-6.58,.21-.09,.43-.19,.64-.28,3.45,7.23,6.94,14.44,10.28,21.71,1.68,3.65,3.18,7.42,4.97,11.02,1.46,2.93,3.28,5.67,4.97,8.47-.34,1.46,.11,2.99,1.2,4.29,.23,.28,.49,.53,.74,.78,2.98-1.49,5.97-2.95,8.98-4.38-1.42-3.18-3.32-6.11-5.15-9.09-1.98-3.23-3.52-6.59-5.05-10.03-3.3-7.41-6.8-14.74-10.31-22.06-.73-1.53-1.46-3.05-2.19-4.58,3.36-1.65,6.66-3.42,9.84-5.34,5.09-3.07,9.84-6.84,13.7-11.32,3.99-4.62,7.01-9.72,9.36-15.3,.53-1.25,1-2.52,1.44-3.8,14.78,5.76,29.71,11.18,44.79,16.14,1.8,.59,3.6,1.17,5.4,1.75,1.02-2.89,2.03-5.78,3.05-8.66-.03-.01-.06-.03-.09-.04Zm-166.33-10.27c-.15-.1-.3-.21-.45-.32-.09-.23-.18-.46-.26-.69-.27-.76-.51-1.53-.72-2.31-.06-.23-.1-.47-.16-.7,.96,1.6,2.01,3.15,3.17,4.62,.09,.19,.18,.39,.27,.58-.62-.38-1.24-.77-1.85-1.18Zm12.15,29.58l-.12-.05s-.04-.02-.06-.03c-.33-.14-.65-.28-.98-.41-.77-.33-1.54-.67-2.31-1.01-.28-.12-.55-.26-.83-.38-.02-.12-.04-.24-.07-.36,2.07,1.14,4.23,2.08,6.46,2.83,.49,.27,.99,.54,1.49,.79-1.2-.44-2.4-.9-3.58-1.38Zm3.52-105.16c-1.36,.43-2.69,.97-3.98,1.56,.56-.59,1.13-1.18,1.71-1.75,.08-.02,.16-.05,.24-.08,1.06-.31,2.14-.57,3.22-.82-.4,.35-.8,.71-1.19,1.08Zm44.7-11.66c.32,.1,.64,.21,.96,.31-.02,.06-.04,.11-.06,.16-1.42-.5-2.85-.96-4.29-1.38,1.14,.27,2.27,.57,3.39,.9Zm2.2,113.51c-.08,.04-.36,.16-.55,.24-.19,.07-.47,.18-.55,.21-.35,.13-.69,.25-1.04,.37-2.07,.71-4.19,1.26-6.34,1.67,3.08-1.11,6.08-2.43,8.98-3.93,.15,.33,.29,.65,.44,.98-.31,.15-.62,.3-.93,.44Zm34.5-30.22c.1-.43,.18-.87,.27-1.3l.13,.05c-.13,.42-.27,.83-.41,1.24Zm4.59-56.63c-.18-.3-.36-.59-.55-.89,.04,.04,.08,.08,.12,.12,.16,.18,.35,.44,.55,.71l-.12,.05Zm4.53,8.02c.1-.04,.19-.08,.29-.12,.19,.5,.37,.99,.54,1.5-.27-.46-.54-.92-.83-1.38Z"/><path class="d" d="M58.74,146.02c-.04-.09-.09-.2-.14-.3-.05-.12-.13-.32-.2-.49,.13,.25,.25,.51,.39,.75-.02,.01-.03,.02-.05,.04Z"/><path class="d" d="M89.52,172.79c.13,.05,.38,.16,.39,.16-.13-.03-.27-.1-.39-.16Z"/><path class="d" d="M156.84,163.16l-.04,.03c.07-.06,.15-.12,.22-.17-.06,.05-.12,.09-.18,.14Z"/><path class="d" d="M173.33,142.51c-.17,.38-.26,.48,0,0h0Z"/><path class="d" d="M177.02,129.02v.02h-.04c.02-.05,.03-.09,.05-.13,0,.04,0,.08-.01,.11Z"/></g><g><path class="e" d="M116.07,69.52l-.36-.07c.54,.54,1.09,1.09,1.63,1.63-.04-.13-.07-.26-.09-.39,.03,.21,.06,.41,.08,.62-.03-.21-.03-.42,0-.63-.03,.21-.06,.41-.08,.62,0-.03,0-.06,.01-.09,.1-.31,.11-.62,.04-.93-.01-.31-.11-.6-.28-.87-.15-.27-.35-.49-.6-.66-.23-.21-.49-.35-.8-.42-.21-.03-.41-.06-.62-.08-.42,0-.82,.11-1.18,.32-.16,.12-.32,.24-.47,.37-.29,.29-.49,.64-.6,1.03-.06,.29-.1,.58-.12,.88,0,.1,0,.19,0,.29,.03,.28,.05,.59,.13,.87,.07,.28,.21,.55,.32,.8,.15,.27,.35,.49,.6,.66,.23,.21,.49,.35,.8,.42,.21,.03,.41,.06,.62,.08,.42,0,.82-.11,1.18-.32,.22-.13,.44-.29,.62-.48,.01-.01,.02-.02,.03-.03,.06-.08,.13-.17,.19-.25,.07-.08,.13-.16,.19-.25,.02-.02,.03-.05,.04-.08l.24-.56v-.03s.02-.03,.02-.04c0-.01,0-.03,0-.04,.03-.21,.06-.41,.08-.62v-.03s0-.06,0-.08c-.02-.24-.05-.48-.1-.71-.11-.4-.31-.74-.6-1.03-.29-.29-.64-.49-1.03-.6-.41-.11-.83-.11-1.24,0-.4,.11-.74,.31-1.03,.6-.05,.04-.09,.08-.14,.12-.02,.02-.04,.04-.05,.06-.14,.17-.28,.35-.41,.53-.03,.05-.06,.1-.09,.15-.12,.23-.22,.47-.3,.71,1.53,.21,3.06,.41,4.59,.62l.03-.27c.01-.32-.05-.62-.2-.9-.09-.29-.26-.54-.48-.75-.21-.23-.46-.39-.75-.48-.28-.15-.58-.21-.9-.2-.21,.03-.41,.06-.62,.08-.4,.11-.74,.31-1.03,.6-.12,.16-.24,.32-.37,.47-.21,.36-.32,.76-.32,1.18l-.03,.27c-.01,.32,.05,.62,.2,.9,.09,.29,.26,.54,.48,.75,.16,.12,.32,.24,.47,.37,.27,.17,.56,.26,.87,.28,.21,.06,.41,.06,.62,0,.31-.01,.6-.11,.87-.28,.16-.12,.32-.24,.47-.37,.29-.29,.49-.64,.6-1.03,.01-.03,.02-.06,.03-.09l-.24,.56c.04-.09,.09-.17,.15-.25-.12,.16-.24,.32-.37,.47,.06-.08,.13-.14,.21-.21-1.3-.34-2.61-.69-3.91-1.03,0,.02,0,.04,.01,.07-.03-.21-.06-.41-.08-.62,0,.05,0,.09,0,.14,.03-.21,.06-.41,.08-.62,0,.04-.02,.07-.03,.11,.08-.19,.16-.37,.24-.56-.01,.03-.03,.06-.05,.09l.37-.47s-.06,.07-.1,.1c.16-.12,.32-.24,.47-.37-.03,.02-.06,.04-.09,.06,1.07,.28,2.13,.56,3.2,.84l-.02-.04,.24,.56c-.05-.13-.09-.26-.11-.4,.03,.21,.06,.41,.08,.62-.02-.16-.02-.31,0-.47-.03,.21-.06,.41-.08,.62,0-.04,.01-.09,.02-.13-1.5-.41-3.01-.83-4.51-1.24-.05,.3-.1,.59-.11,.89,0,.1,0,.19,0,.29,.02,.3,.06,.59,.12,.89,.02,.1,.04,.19,.07,.28,.11,.4,.31,.74,.6,1.03,.29,.29,.64,.49,1.03,.6l.36,.07c.31,.1,.62,.11,.93,.04,.31-.01,.6-.11,.87-.28,.27-.15,.49-.35,.66-.6,.21-.23,.35-.49,.42-.8,.03-.21,.06-.41,.08-.62,0-.42-.11-.82-.32-1.18-.12-.16-.24-.32-.37-.47-.29-.29-.64-.49-1.03-.6h0Z"/><g><path class="e" d="M131.59,69.99c3.01,0,3.02-4.68,0-4.68s-3.02,4.68,0,4.68h0Z"/><path class="e" d="M129.25,67.21v.87c-.01,.32,.05,.62,.2,.9,.09,.29,.26,.54,.48,.75,.21,.23,.46,.39,.75,.48,.28,.15,.58,.21,.9,.2,.21-.03,.41-.06,.62-.08,.4-.11,.74-.31,1.03-.6l.37-.47c.21-.36,.32-.76,.32-1.18v-.87c.01-.32-.05-.62-.2-.9-.09-.29-.26-.54-.48-.75-.21-.23-.46-.39-.75-.48-.28-.15-.58-.21-.9-.2-.21,.03-.41,.06-.62,.08-.4,.11-.74,.31-1.03,.6-.12,.16-.24,.32-.37,.47-.21,.36-.32,.76-.32,1.18h0Z"/></g><path class="e" d="M136.19,76.64c-1.06,4.06-4.83,7.46-8.82,8.54-3.81,1.04-7.85,.28-11.01-2.07-.76-.57-1.96-.12-2.4,.63-.52,.89-.13,1.83,.63,2.4,3.95,2.95,9.32,3.72,14.02,2.34,5.01-1.48,9.63-5.79,10.97-10.91,.57-2.19-2.81-3.12-3.38-.93h0Z"/></g></g></g></g></svg>