<?xml version="1.0" encoding="UTF-8"?><svg xmlns="http://www.w3.org/2000/svg" viewBox="0 0 314.24 174.68"><defs><style>.d{fill:#cce2de;}.e{fill:#d8eae6;}.f{fill:#474546;}</style></defs><g id="a"/><g id="b"><g id="c"><g><g><path class="e" d="M168.79,137.94c.04,.11,.07,.22,.11,.34v.02c-.09-.37-.12-.42-.11-.35Z"/><path class="e" d="M116.48,35.07c.08-.01,.16-.02,.24-.03,.39-.06-.1,.01-.24,.03Z"/><path class="e" d="M256.4,118.9c-.87-3.15-2.09-6.18-3.26-9.21-1.24-3.2-2.33-6.45-3.96-9.46-1.51-2.81-3.23-5.62-5.24-8.07-2.35-4.9-5.69-9.32-9.72-12.78-4.96-4.26-10.72-7.59-16.52-10.39-3.82-1.85-7.81-3.4-11.91-4.33-2.38-.92-4.74-1.62-7.28-1.94-1.2-.15-2.4-.26-3.61-.34-3.72-.25-7.43-.2-11.11,.4-2.99,.49-6.31,1.8-7.98,4.57-.13,.05-.27,.1-.4,.16-1.66-6.66-5.52-12.9-10.1-17.63-5.29-5.47-11.84-9.33-18.78-11.9-6.72-2.49-13.96-3.68-21.07-3.66-1.68,0-3.35,.08-5.02,.24-.76,.07-1.51,.16-2.26,.26-.49,.07-.98,.14-1.47,.21l-.25,.04c-.92,.13-1.84,.26-2.76,.4-4.88,.7-9.77,1.46-14.56,2.72-4.04,1.07-8.02,2.68-11.41,5.3-3.61,2.79-6.61,6.18-9.31,9.95-5.19,7.25-9.18,16.04-10.87,24.98-.98,5.18-.93,10.4-.2,15.55-.89-.4-1.79-.77-2.71-1.1-1.97-.69-3.97-1.16-5.99-1.45-2.92-.67-5.91-1.06-8.87-.93-1.25,.05-2.48,.22-3.72,.41-.07,.01-.12,.02-.17,.03-.12,.02-.25,.03-.37,.05-.5,.07-1.01,.13-1.51,.2-2.15,.27-4.29,.54-6.43,.88-3.88,.61-7.66,1.59-11.19,3.47-3.11,1.66-5.93,4.04-8.42,6.61-5.04,5.2-9.01,11.5-12.81,17.74-2.05,3.36-3.69,6.89-4.45,10.84-.79,4.14-.92,8.37-.41,12.55,.48,3.86,1.43,7.84,4.35,10.48,1.08,.98,2.27,1.7,3.53,2.23,1.49,1.61,3.43,2.82,5.29,3.86,1.77,.99,3.52,1.88,5.41,2.44,.26,.15,.53,.28,.83,.36,5.26,1.44,10.65,2.19,16.07,2.56,2.55,.87,5.16,1.55,7.83,2.01,2.7,.46,5.39,.64,8.1,.89,2.7,.25,5.4,.63,8.1,.92,10.95,1.2,21.91,2.23,32.88,3.09,21.02,1.64,42.18,2.95,63.26,2.45,10.65-.25,21.28-1.08,31.82-2.72,2.32-.36,4.66-.74,7.01-1.17,.85,.03,1.69,.04,2.54,.06,.81,.29,1.7,.33,2.55,.03,.59,0,1.18,0,1.77,0,.59,.14,1.19,.2,1.78,.17,.5-.03,.99-.12,1.48-.22,1.68-.04,3.35-.1,5.03-.2,23.99-1.32,54.65-21.94,46.45-51.59ZM13.56,148.31s-.04,0-.06,0c.24-.22,.45-.45,.63-.72,.12,.23,.22,.47,.35,.69-.31,.02-.62,.03-.93,.03Zm21.41-17.46c.03-.12,.05-.24,.08-.36,.02-.1,.06-.2,.09-.3,.06,.28,.13,.55,.21,.81-.13-.05-.25-.1-.38-.15Zm8.71-23.51c-.47,.18-.93,.4-1.38,.62,.96-1.06,1.97-2.07,3.03-3.02h0c-.01,.06-.03,.13-.04,.19-.07,.59-.03,1.15,.1,1.68-.58,.13-1.15,.31-1.72,.53Zm15.66,34.68c-.28,.45-.57,.9-.87,1.34-.12,.18-.24,.35-.37,.53l-.06,.09-.05,.07c-.17,.21-.34,.42-.5,.63-.39,.03-.77,.07-1.16,.11-.16-.22-.28-.39-.21-.27-.03-.05-.07-.11-.1-.16,.46-.61,.87-1.25,1.25-1.91,.74-.22,1.48-.44,2.22-.67-.05,.08-.1,.17-.15,.26Zm2.95-13.29c-.19-.52-.43-1.02-.73-1.5,.14-.1,.28-.2,.43-.29,.11,.34,.21,.68,.3,1.02,.06,.24,.11,.49,.16,.74-.05,0-.11,.02-.16,.03Zm13.54-49.65c.1-.46,.22-.93,.33-1.39,.01,.26,.03,.52,.04,.78-.13,.2-.25,.41-.38,.61Zm27.26,3.1c-.13,.19-.24,.39-.36,.59-.32,.12-.63,.24-.95,.36,.06-.37,.11-.74,.16-1.12,.45-.29,.89-.58,1.34-.87,.36-.24,.72-.47,1.07-.7-.44,.56-.86,1.13-1.26,1.74Zm6.07-17.47c-.39,.21-.78,.44-1.16,.66-.52,.04-1.05,.08-1.57,.12,.87-.28,1.73-.57,2.59-.88,.12-.04,.25-.09,.37-.13,.08,0,.16-.01,.24-.02-.16,.08-.32,.17-.47,.25Zm8.41,58.48l-.02,.03c-.08-.04-.17-.08-.25-.12-.97-.48-1.91-1-2.85-1.53-.1-.14-.2-.29-.29-.43-.33-.51-.67-.93-1.05-1.31,.38,.14,.77,.26,1.16,.37,1.18,.95,2.43,1.78,3.75,2.44-.15,.19-.31,.37-.45,.56Zm23.59-42.39c.13,.17,.24,.35,.36,.52,.29,.42,.58,.83,.87,1.25,.04,.06,.09,.13,.13,.2,.16,.29,.32,.58,.47,.86-.56-.08-1.12-.16-1.68-.24-.1-.91-.22-1.83-.36-2.74,.09,.07,.16,.12,.2,.14Zm-2.72,85.06c1.98-.04,3.96-.1,5.94-.15,.12,.08,.24,.15,.36,.23-2.1-.01-4.21-.04-6.31-.08Zm22.06-31.76c-.09-.19-.18-.37-.27-.56,.21-.37,.41-.73,.6-1.11-.13,.55-.24,1.11-.33,1.67Zm14.04,10.42c-.14-.09-.29-.18-.43-.28-.33-.22-.65-.45-.97-.69l-.08-.06c-.11-.09-.44-.36-.45-.37-.63-.57-1.23-1.18-1.79-1.82-.15-.18-.3-.35-.45-.54-.03-.04-.12-.16-.2-.25-.07-.11-.16-.24-.19-.28-.16-.24-.31-.49-.46-.75-.23-.39-.43-.8-.62-1.21l.02,.06s-.02-.05-.02-.08h0c-.05-.12-.09-.27-.1-.34,0-.02-.02-.05-.02-.07-.02-.05-.03-.1-.04-.15,.03,.01,.06,.02,.09,.04,1.38,2.24,3.29,3.96,5.58,4.98,.15,.66,.34,1.31,.57,1.95-.14-.05-.28-.1-.42-.15Zm38.17-37.07c0-.1-.02-.19-.03-.29,.08,.06,.16,.12,.24,.18-.07,.04-.14,.07-.21,.11Z"/><path class="e" d="M13.27,148.74h0s.04,.07,.07,.12h0s-.06-.09-.07-.12Z"/><path class="e" d="M13.71,149.49s-.05-.09-.09-.15c.06,.07,.13,.15,.15,.22-.02-.03-.04-.05-.06-.07Z"/><path class="e" d="M46.48,124.27s.04,.01,.06,.02l.04,.04,.04,.07s-.09-.08-.14-.13Z"/><path class="e" d="M46.79,124.44h0Z"/><path class="e" d="M50.27,123.89c.07,.17,.15,.33,.23,.48v.02c-.19-.3-.25-.46-.23-.5Z"/><path class="e" d="M59.76,128.95v-.05c.15,0,.12,.04,0,.05Z"/><path class="e" d="M60.56,127.99c.28-.22,.68-.45,0,0h0Z"/><path class="e" d="M75.15,82.95v-.03c.04-.14,.07-.28,.09-.42,.03-.06,.04,.03-.09,.45Z"/><path class="e" d="M121.14,101.19c-.12,.1-.24,.25-.35,.41,.03-.11,.15-.29,.37-.43v.02Z"/><path class="e" d="M121.8,95.34h0c0,.12,.06,.29,.13,.46-.08-.11-.15-.29-.13-.46Z"/><path class="e" d="M122.2,98.39c0-.64,.03-.37,0,0h0Z"/><path class="e" d="M122.19,96.62v.03c-.01,.16,0,.36,.02,.55-.05-.07-.09-.29-.02-.58Z"/><path class="e" d="M134.66,136.67c0-.05-.01-.1-.02-.15v-.08c.05,.39,.04,.37,.02,.23Z"/><path class="e" d="M135.93,44.22c-.16-.07-.32-.14-.48-.21l-.08-.04s-.08-.04-.12-.05c.5,.09,1.01,.18,1.51,.29,.08,.02,.16,.04,.24,.06-.35-.02-.71-.03-1.06-.04Z"/></g><g><g><path class="f" d="M163.48,91.59c2.51-1.31,.73-4.89-1.78-3.58-2.51,1.31-.73,4.89,1.78,3.58h0Z"/><path class="f" d="M160.48,90.48c.11,.22,.22,.45,.33,.67,.11,.25,.28,.45,.51,.6,.19,.18,.42,.3,.69,.37,.26,.08,.53,.1,.81,.04,.29,0,.56-.09,.83-.24,.16-.11,.32-.22,.49-.33,.29-.26,.5-.56,.63-.91l.12-.52c.04-.37-.02-.72-.18-1.04-.11-.22-.22-.45-.33-.67-.11-.25-.28-.45-.51-.6-.19-.18-.42-.3-.69-.37-.26-.08-.53-.1-.81-.04-.29,0-.56,.09-.83,.24-.16,.11-.32,.22-.49,.33-.29,.26-.5,.56-.63,.91-.04,.17-.08,.35-.12,.52-.04,.37,.02,.72,.18,1.04h0Z"/></g><g><path class="f" d="M148.59,94.2c2.51-1.31,.73-4.89-1.78-3.58-2.51,1.31-.73,4.89,1.78,3.58h0Z"/><path class="f" d="M145.59,93.09c.11,.22,.22,.45,.33,.67,.11,.25,.28,.45,.51,.6,.19,.18,.42,.3,.69,.37,.26,.08,.53,.1,.81,.04,.29,0,.56-.09,.83-.24l.49-.33c.29-.26,.5-.56,.63-.91,.04-.17,.08-.35,.12-.52,.04-.37-.02-.72-.18-1.04-.11-.22-.22-.45-.33-.67-.11-.25-.28-.45-.51-.6-.19-.18-.42-.3-.69-.37-.26-.08-.53-.1-.81-.04-.29,0-.56,.09-.83,.24l-.49,.33c-.29,.26-.5,.56-.63,.91-.04,.17-.08,.35-.12,.52-.04,.37,.02,.72,.18,1.04h0Z"/></g><path class="f" d="M134.89,101.28c.25,3.7,2.01,7.01,4.9,9.11,2.94,2.13,6.61,2.24,9.77,.64,.97-.49,1.3-2.05,.74-2.99-.65-1.06-1.77-1.31-2.82-.78-.16,.08-.47,.2-.13,.07-.16,.06-.31,.12-.47,.18-.31,.1-.62,.17-.93,.25-.46,.11,.36-.01-.07,.01-.15,0-.31,.03-.46,.03-.31,0-.61-.01-.91-.03-.47-.03,.37,.09-.05,0-.15-.03-.29-.06-.44-.1-.29-.07-.57-.18-.86-.28-.44-.15,.32,.17-.06-.02-.13-.07-.27-.14-.4-.21-.29-.16-.57-.34-.83-.53-.05-.04-.45-.37-.22-.16,.24,.21-.15-.14-.2-.19-.23-.21-.44-.44-.65-.67-.1-.12-.2-.24-.3-.36-.05-.06-.1-.12-.14-.19,.15,.21,.18,.25,.09,.12-.15-.28-.35-.54-.5-.82-.16-.28-.29-.58-.43-.87-.06-.15-.04-.1,.05,.14-.03-.08-.06-.15-.08-.23-.05-.16-.11-.31-.15-.47-.09-.32-.17-.64-.24-.97-.01-.07-.1-.63-.06-.29,.05,.34-.02-.32-.03-.38-.08-1.14-.89-2.24-2.06-2.18-1.05,.05-2.14,.96-2.06,2.18h0Z"/></g><g><path class="d" d="M289.69,3c-.06,.05-.12,.1-.19,.15-.03,.03-.07,.05-.1,.07-.03,.13-.05,.23-.06,.27-.18,.67-.41,1.33-.65,1.98-.04,.1-.15,.34-.22,.52-.19,.42-.39,.84-.61,1.26-.75,1.48-1.63,2.87-2.57,4.22l-.02,.03c-.09,.12-.18,.24-.28,.37-.25,.33-.5,.65-.76,.97-.55,.67-1.11,1.33-1.69,1.97-1.06,1.17-2.17,2.29-3.3,3.38-1.12,1.09-2.27,2.14-3.45,3.16-.48,.42-.97,.82-1.45,1.23-.12,.1-.38,.31-.52,.42-.34,.27-.69,.55-1.04,.81-4.86,3.74-10.08,6.94-15.53,9.6-17.93,8.75-40.25,15.46-59.8,9.89-3.44-.98-6.91-2.37-9.45-5.01-4.38-4.55-5.02-12.22-2.44-18.12s7.84-10.12,13.57-12.44c-.74-2.57-1.49-5.14-2.23-7.72-12.78,2.43-22.43,16.78-20.44,30.39,4.46,30.44,41.74,23.27,61.18,18.89,12.85-2.89,25.42-8.06,36.38-15.8,5.62-3.97,11.09-8.58,15.58-13.94,2.84-3.4,5.58-7.49,7.14-11.93-2.39-1.47-4.75-3.01-7.06-4.61Z"/><path class="d" d="M285.22,11.56c-.26,.37-.12,.17,0,0h0Z"/><path class="d" d="M184.85,34.62c.05,.13,.16,.37,.17,.37-.06-.03-.12-.19-.17-.37Z"/><path class="d" d="M191.52,41.39c-.05-.08-.31-.17-.35-.16,.08,.03,.25,.11,.32,.15h.03Z"/><path class="d" d="M188.41,39.54h0l-.03-.02h0l.02,.02Z"/><path class="d" d="M251.63,66.11c-.07,0-.17,.02-.27,.04,.02,0,.04,0,.06,0,.07-.01,.14-.03,.21-.03Z"/><path class="d" d="M305.51,13.49c-.06,.11-.11,.23-.17,.34-.03,.06-.06,.13-.1,.19-.29,.56-.59,1.12-.9,1.67-.65,1.17-1.32,2.33-2.03,3.48-1.45,2.36-3.03,4.67-4.71,6.92-1.76,2.36-3.64,4.65-5.63,6.88-.48,.53-.96,1.06-1.44,1.59l-.06,.06s-.04,.05-.09,.09c-.31,.32-.61,.64-.93,.96-1.05,1.07-2.13,2.13-3.24,3.17-4.42,4.14-9.26,7.99-14.54,11.39-.09,.06-.18,.12-.27,.17-.02,0-.04,.02-.05,.03-.3,.18-.59,.36-.89,.54-.69,.42-1.39,.83-2.09,1.23-1.35,.77-2.73,1.52-4.13,2.22-2.82,1.43-5.74,2.72-8.76,3.84-.31,.12-.63,.23-.94,.34-.23,.07-.46,.16-.67,.23-.83,.27-1.66,.53-2.5,.78-1.67,.49-3.36,.93-5.07,1.31-1.76,.39-3.55,.71-5.35,.97-.41,.06-.81,.11-1.22,.16-.08,.01-.18,.02-.26,.03,.15-.01,.18,0-.18,.03-.02,0-.05,0-.07,0-.06,0-.13,.01-.18,.03,.03,0,.07-.01,.12-.02-.89,.08-1.79,.16-2.68,.21-.07,0-.13,.01-.2,.02-.32,2.96,.9,5.63,3.16,7.78,13.03-1.29,25.29-5.74,35.84-12.12,11.67-7.06,21.5-15.97,29.34-25.96,3.73-4.75,6.92-9.76,9.6-14.96-2.92-1.18-5.84-2.38-8.73-3.61Z"/></g></g></g></g></svg>